<mxfile host="app.diagrams.net" agent="Mozilla/5.0 (Windows NT 10.0; Win64; x64) AppleWebKit/537.36 (KHTML, like Gecko) Chrome/135.0.0.0 Safari/537.36" version="26.2.13" pages="3">
  <diagram name="Page-1" id="19d8dcba-68ad-dc05-1034-9cf7b2a963f6">
    <mxGraphModel dx="1408" dy="748" grid="1" gridSize="10" guides="1" tooltips="1" connect="1" arrows="1" fold="1" page="1" pageScale="1" pageWidth="1100" pageHeight="850" background="none" math="0" shadow="0">
      <root>
        <mxCell id="0" />
        <mxCell id="1" parent="0" />
        <mxCell id="218ae93e1282097f-12" value="" style="whiteSpace=wrap;html=1;rounded=1;shadow=0;comic=0;strokeWidth=2;fontFamily=Verdana;align=center;fontSize=10;" parent="1" vertex="1">
          <mxGeometry x="70" y="440" width="300" height="130" as="geometry" />
        </mxCell>
        <mxCell id="218ae93e1282097f-13" value="Name" style="shape=actor;whiteSpace=wrap;html=1;rounded=0;shadow=0;comic=0;strokeWidth=1;fillColor=#CCCCCC;fontFamily=Verdana;align=center;strokeColor=none;labelPosition=center;verticalLabelPosition=bottom;verticalAlign=top;fontSize=10;" parent="1" vertex="1">
          <mxGeometry x="112" y="450" width="24" height="30" as="geometry" />
        </mxCell>
        <mxCell id="218ae93e1282097f-16" value="Name" style="shape=actor;whiteSpace=wrap;html=1;rounded=0;shadow=0;comic=0;strokeWidth=1;fillColor=#CCCCCC;fontFamily=Verdana;align=center;strokeColor=none;labelPosition=center;verticalLabelPosition=bottom;verticalAlign=top;fontSize=10;" parent="1" vertex="1">
          <mxGeometry x="205" y="450" width="24" height="30" as="geometry" />
        </mxCell>
        <mxCell id="218ae93e1282097f-17" value="Name" style="shape=actor;whiteSpace=wrap;html=1;rounded=0;shadow=0;comic=0;strokeWidth=1;fillColor=#CCCCCC;fontFamily=Verdana;align=center;strokeColor=none;labelPosition=center;verticalLabelPosition=bottom;verticalAlign=top;fontSize=10;" parent="1" vertex="1">
          <mxGeometry x="310" y="450" width="24" height="30" as="geometry" />
        </mxCell>
        <mxCell id="218ae93e1282097f-19" value="" style="whiteSpace=wrap;html=1;rounded=1;shadow=0;comic=0;strokeWidth=2;fontFamily=Verdana;align=center;fontSize=10;" parent="1" vertex="1">
          <mxGeometry x="420" y="440" width="340" height="130" as="geometry" />
        </mxCell>
        <mxCell id="218ae93e1282097f-21" value="Name" style="shape=actor;whiteSpace=wrap;html=1;rounded=0;shadow=0;comic=0;strokeWidth=1;fillColor=#CCCCCC;fontFamily=Verdana;align=center;strokeColor=none;labelPosition=center;verticalLabelPosition=bottom;verticalAlign=top;fontSize=10;" parent="1" vertex="1">
          <mxGeometry x="578" y="450" width="24" height="30" as="geometry" />
        </mxCell>
        <mxCell id="218ae93e1282097f-23" value="Name" style="shape=actor;whiteSpace=wrap;html=1;rounded=0;shadow=0;comic=0;strokeWidth=1;fillColor=#CCCCCC;fontFamily=Verdana;align=center;strokeColor=none;labelPosition=center;verticalLabelPosition=bottom;verticalAlign=top;fontSize=10;" parent="1" vertex="1">
          <mxGeometry x="678" y="450" width="24" height="30" as="geometry" />
        </mxCell>
        <mxCell id="218ae93e1282097f-24" value="" style="whiteSpace=wrap;html=1;rounded=1;shadow=0;comic=0;strokeWidth=2;fontFamily=Verdana;align=center;fontSize=10;" parent="1" vertex="1">
          <mxGeometry x="876" y="440" width="223" height="130" as="geometry" />
        </mxCell>
        <mxCell id="218ae93e1282097f-25" value="Name" style="shape=actor;whiteSpace=wrap;html=1;rounded=0;shadow=0;comic=0;strokeWidth=1;fillColor=#CCCCCC;fontFamily=Verdana;align=center;strokeColor=none;labelPosition=center;verticalLabelPosition=bottom;verticalAlign=top;fontSize=10;" parent="1" vertex="1">
          <mxGeometry x="925" y="450" width="24" height="30" as="geometry" />
        </mxCell>
        <mxCell id="218ae93e1282097f-27" value="Name" style="shape=actor;whiteSpace=wrap;html=1;rounded=0;shadow=0;comic=0;strokeWidth=1;fillColor=#CCCCCC;fontFamily=Verdana;align=center;strokeColor=none;labelPosition=center;verticalLabelPosition=bottom;verticalAlign=top;fontSize=10;" parent="1" vertex="1">
          <mxGeometry x="1025" y="450" width="24" height="30" as="geometry" />
        </mxCell>
        <mxCell id="218ae93e1282097f-29" value="" style="whiteSpace=wrap;html=1;rounded=1;shadow=0;comic=0;strokeWidth=2;fontFamily=Verdana;align=center;fontSize=10;" parent="1" vertex="1">
          <mxGeometry x="1197" y="440" width="300" height="130" as="geometry" />
        </mxCell>
        <mxCell id="218ae93e1282097f-34" value="" style="whiteSpace=wrap;html=1;rounded=1;shadow=0;comic=0;strokeWidth=2;fontFamily=Verdana;align=center;fontSize=10;" parent="1" vertex="1">
          <mxGeometry x="1600" y="440" width="410" height="130" as="geometry" />
        </mxCell>
        <mxCell id="218ae93e1282097f-35" value="Name" style="shape=actor;whiteSpace=wrap;html=1;rounded=0;shadow=0;comic=0;strokeWidth=1;fillColor=#CCCCCC;fontFamily=Verdana;align=center;strokeColor=none;labelPosition=center;verticalLabelPosition=bottom;verticalAlign=top;fontSize=10;" parent="1" vertex="1">
          <mxGeometry x="1643" y="450" width="24" height="30" as="geometry" />
        </mxCell>
        <mxCell id="218ae93e1282097f-37" value="Name" style="shape=actor;whiteSpace=wrap;html=1;rounded=0;shadow=0;comic=0;strokeWidth=1;fillColor=#CCCCCC;fontFamily=Verdana;align=center;strokeColor=none;labelPosition=center;verticalLabelPosition=bottom;verticalAlign=top;fontSize=10;" parent="1" vertex="1">
          <mxGeometry x="1743" y="450" width="24" height="30" as="geometry" />
        </mxCell>
        <mxCell id="218ae93e1282097f-38" value="Name" style="shape=actor;whiteSpace=wrap;html=1;rounded=0;shadow=0;comic=0;strokeWidth=1;fillColor=#CCCCCC;fontFamily=Verdana;align=center;strokeColor=none;labelPosition=center;verticalLabelPosition=bottom;verticalAlign=top;fontSize=10;" parent="1" vertex="1">
          <mxGeometry x="1843" y="450" width="24" height="30" as="geometry" />
        </mxCell>
        <mxCell id="218ae93e1282097f-39" value="Name" style="shape=actor;whiteSpace=wrap;html=1;rounded=0;shadow=0;comic=0;strokeWidth=1;fillColor=#CCCCCC;fontFamily=Verdana;align=center;strokeColor=none;labelPosition=center;verticalLabelPosition=bottom;verticalAlign=top;fontSize=10;" parent="1" vertex="1">
          <mxGeometry x="478" y="450" width="24" height="30" as="geometry" />
        </mxCell>
        <mxCell id="218ae93e1282097f-41" value="Name" style="shape=actor;whiteSpace=wrap;html=1;rounded=0;shadow=0;comic=0;strokeWidth=1;fillColor=#CCCCCC;fontFamily=Verdana;align=center;strokeColor=none;labelPosition=center;verticalLabelPosition=bottom;verticalAlign=top;fontSize=10;" parent="1" vertex="1">
          <mxGeometry x="1943" y="450" width="24" height="30" as="geometry" />
        </mxCell>
        <mxCell id="218ae93e1282097f-42" value="" style="edgeStyle=orthogonalEdgeStyle;rounded=1;html=1;labelBackgroundColor=none;endArrow=block;endFill=1;strokeColor=#4D4D4D;strokeWidth=2;fontFamily=Verdana;fontSize=12;fontStyle=1" parent="1" source="6257edae8c83ed4a-1" target="6257edae8c83ed4a-12" edge="1">
          <mxGeometry relative="1" as="geometry" />
        </mxCell>
        <mxCell id="218ae93e1282097f-43" value="" style="edgeStyle=orthogonalEdgeStyle;rounded=1;html=1;labelBackgroundColor=none;endArrow=block;endFill=1;strokeColor=#4D4D4D;strokeWidth=2;fontFamily=Verdana;fontSize=12;fontStyle=1" parent="1" source="6257edae8c83ed4a-1" target="6257edae8c83ed4a-9" edge="1">
          <mxGeometry relative="1" as="geometry" />
        </mxCell>
        <mxCell id="218ae93e1282097f-44" value="" style="edgeStyle=orthogonalEdgeStyle;rounded=1;html=1;labelBackgroundColor=none;endArrow=block;endFill=1;strokeColor=#4D4D4D;strokeWidth=2;fontFamily=Verdana;fontSize=12;fontStyle=1" parent="1" source="6257edae8c83ed4a-1" target="218ae93e1282097f-2" edge="1">
          <mxGeometry relative="1" as="geometry" />
        </mxCell>
        <mxCell id="218ae93e1282097f-45" value="" style="edgeStyle=elbowEdgeStyle;rounded=1;html=1;labelBackgroundColor=none;endArrow=block;endFill=1;strokeColor=#4D4D4D;strokeWidth=2;fontFamily=Verdana;fontSize=12;fontStyle=1" parent="1" source="6257edae8c83ed4a-9" target="6257edae8c83ed4a-21" edge="1">
          <mxGeometry relative="1" as="geometry" />
        </mxCell>
        <mxCell id="218ae93e1282097f-46" value="" style="edgeStyle=orthogonalEdgeStyle;rounded=1;html=1;labelBackgroundColor=none;endArrow=block;endFill=1;strokeColor=#4D4D4D;strokeWidth=2;fontFamily=Verdana;fontSize=12;fontStyle=1" parent="1" source="6257edae8c83ed4a-9" target="218ae93e1282097f-8" edge="1">
          <mxGeometry relative="1" as="geometry" />
        </mxCell>
        <mxCell id="218ae93e1282097f-47" value="" style="edgeStyle=orthogonalEdgeStyle;rounded=1;html=1;labelBackgroundColor=none;endArrow=block;endFill=1;strokeColor=#4D4D4D;strokeWidth=2;fontFamily=Verdana;fontSize=12;fontStyle=1" parent="1" source="218ae93e1282097f-2" target="218ae93e1282097f-5" edge="1">
          <mxGeometry relative="1" as="geometry" />
        </mxCell>
        <mxCell id="218ae93e1282097f-48" value="" style="edgeStyle=orthogonalEdgeStyle;rounded=1;html=1;labelBackgroundColor=none;endArrow=block;endFill=1;strokeColor=#4D4D4D;strokeWidth=2;fontFamily=Verdana;fontSize=12;fontStyle=1" parent="1" source="218ae93e1282097f-2" target="6257edae8c83ed4a-24" edge="1">
          <mxGeometry relative="1" as="geometry" />
        </mxCell>
        <mxCell id="218ae93e1282097f-49" value="" style="edgeStyle=elbowEdgeStyle;rounded=1;html=1;labelBackgroundColor=none;endArrow=block;endFill=1;strokeColor=#4D4D4D;strokeWidth=2;fontFamily=Verdana;fontSize=10;" parent="1" source="218ae93e1282097f-5" target="218ae93e1282097f-34" edge="1">
          <mxGeometry relative="1" as="geometry" />
        </mxCell>
        <mxCell id="218ae93e1282097f-50" value="" style="edgeStyle=orthogonalEdgeStyle;rounded=1;html=1;labelBackgroundColor=none;endArrow=block;endFill=1;strokeColor=#4D4D4D;strokeWidth=2;fontFamily=Verdana;fontSize=10;" parent="1" source="6257edae8c83ed4a-24" target="218ae93e1282097f-29" edge="1">
          <mxGeometry relative="1" as="geometry" />
        </mxCell>
        <mxCell id="218ae93e1282097f-51" value="" style="edgeStyle=elbowEdgeStyle;rounded=1;html=1;labelBackgroundColor=none;endArrow=block;endFill=1;strokeColor=#4D4D4D;strokeWidth=2;fontFamily=Verdana;fontSize=10;" parent="1" source="6257edae8c83ed4a-12" target="218ae93e1282097f-24" edge="1">
          <mxGeometry relative="1" as="geometry" />
        </mxCell>
        <mxCell id="218ae93e1282097f-52" value="" style="edgeStyle=elbowEdgeStyle;rounded=1;html=1;labelBackgroundColor=none;endArrow=block;endFill=1;strokeColor=#4D4D4D;strokeWidth=2;fontFamily=Verdana;fontSize=10;" parent="1" source="6257edae8c83ed4a-21" target="218ae93e1282097f-19" edge="1">
          <mxGeometry relative="1" as="geometry" />
        </mxCell>
        <mxCell id="218ae93e1282097f-53" value="" style="edgeStyle=elbowEdgeStyle;rounded=1;html=1;labelBackgroundColor=none;endArrow=block;endFill=1;strokeColor=#4D4D4D;strokeWidth=2;fontFamily=Verdana;fontSize=10;" parent="1" source="218ae93e1282097f-8" target="218ae93e1282097f-12" edge="1">
          <mxGeometry relative="1" as="geometry" />
        </mxCell>
        <mxCell id="218ae93e1282097f-55" value="Position 1" style="text;html=1;strokeColor=none;fillColor=none;align=center;verticalAlign=middle;whiteSpace=wrap;rounded=1;shadow=0;comic=0;fontFamily=Verdana;fontSize=10;" parent="1" vertex="1">
          <mxGeometry x="75" y="505" width="90" height="25" as="geometry" />
        </mxCell>
        <mxCell id="218ae93e1282097f-56" value="Position 1" style="text;html=1;strokeColor=none;fillColor=none;align=center;verticalAlign=middle;whiteSpace=wrap;rounded=1;shadow=0;comic=0;fontFamily=Verdana;fontSize=10;" parent="1" vertex="1">
          <mxGeometry x="175" y="505" width="90" height="25" as="geometry" />
        </mxCell>
        <mxCell id="218ae93e1282097f-57" value="Position 1" style="text;html=1;strokeColor=none;fillColor=none;align=center;verticalAlign=middle;whiteSpace=wrap;rounded=1;shadow=0;comic=0;fontFamily=Verdana;fontSize=10;" parent="1" vertex="1">
          <mxGeometry x="275" y="505" width="90" height="25" as="geometry" />
        </mxCell>
        <mxCell id="218ae93e1282097f-58" value="Position 2" style="text;html=1;strokeColor=none;fillColor=none;align=center;verticalAlign=middle;whiteSpace=wrap;rounded=1;shadow=0;comic=0;fontFamily=Verdana;fontSize=10;" parent="1" vertex="1">
          <mxGeometry x="75" y="540" width="90" height="25" as="geometry" />
        </mxCell>
        <mxCell id="218ae93e1282097f-59" value="Position 2" style="text;html=1;strokeColor=none;fillColor=none;align=center;verticalAlign=middle;whiteSpace=wrap;rounded=1;shadow=0;comic=0;fontFamily=Verdana;fontSize=10;" parent="1" vertex="1">
          <mxGeometry x="175" y="540" width="90" height="25" as="geometry" />
        </mxCell>
        <mxCell id="218ae93e1282097f-60" value="Position 3" style="text;html=1;strokeColor=none;fillColor=none;align=center;verticalAlign=middle;whiteSpace=wrap;rounded=1;shadow=0;comic=0;fontFamily=Verdana;fontSize=10;" parent="1" vertex="1">
          <mxGeometry x="275" y="540" width="90" height="25" as="geometry" />
        </mxCell>
        <mxCell id="218ae93e1282097f-61" value="Position 1" style="text;html=1;strokeColor=none;fillColor=none;align=center;verticalAlign=middle;whiteSpace=wrap;rounded=1;shadow=0;comic=0;fontFamily=Verdana;fontSize=10;" parent="1" vertex="1">
          <mxGeometry x="445" y="505" width="90" height="25" as="geometry" />
        </mxCell>
        <mxCell id="218ae93e1282097f-62" value="Position 1" style="text;html=1;strokeColor=none;fillColor=none;align=center;verticalAlign=middle;whiteSpace=wrap;rounded=1;shadow=0;comic=0;fontFamily=Verdana;fontSize=10;" parent="1" vertex="1">
          <mxGeometry x="545" y="505" width="90" height="25" as="geometry" />
        </mxCell>
        <mxCell id="218ae93e1282097f-63" value="Position 1" style="text;html=1;strokeColor=none;fillColor=none;align=center;verticalAlign=middle;whiteSpace=wrap;rounded=1;shadow=0;comic=0;fontFamily=Verdana;fontSize=10;" parent="1" vertex="1">
          <mxGeometry x="645" y="505" width="90" height="25" as="geometry" />
        </mxCell>
        <mxCell id="218ae93e1282097f-64" value="Position 2" style="text;html=1;strokeColor=none;fillColor=none;align=center;verticalAlign=middle;whiteSpace=wrap;rounded=1;shadow=0;comic=0;fontFamily=Verdana;fontSize=10;" parent="1" vertex="1">
          <mxGeometry x="445" y="540" width="90" height="25" as="geometry" />
        </mxCell>
        <mxCell id="218ae93e1282097f-65" value="Position 2" style="text;html=1;strokeColor=none;fillColor=none;align=center;verticalAlign=middle;whiteSpace=wrap;rounded=1;shadow=0;comic=0;fontFamily=Verdana;fontSize=10;" parent="1" vertex="1">
          <mxGeometry x="545" y="540" width="90" height="25" as="geometry" />
        </mxCell>
        <mxCell id="218ae93e1282097f-66" value="Position 3" style="text;html=1;strokeColor=none;fillColor=none;align=center;verticalAlign=middle;whiteSpace=wrap;rounded=1;shadow=0;comic=0;fontFamily=Verdana;fontSize=10;" parent="1" vertex="1">
          <mxGeometry x="645" y="540" width="90" height="25" as="geometry" />
        </mxCell>
        <mxCell id="218ae93e1282097f-67" value="Position 1" style="text;html=1;strokeColor=none;fillColor=none;align=center;verticalAlign=middle;whiteSpace=wrap;rounded=1;shadow=0;comic=0;fontFamily=Verdana;fontSize=10;" parent="1" vertex="1">
          <mxGeometry x="892" y="505" width="90" height="25" as="geometry" />
        </mxCell>
        <mxCell id="218ae93e1282097f-68" value="Position 1" style="text;html=1;strokeColor=none;fillColor=none;align=center;verticalAlign=middle;whiteSpace=wrap;rounded=1;shadow=0;comic=0;fontFamily=Verdana;fontSize=10;" parent="1" vertex="1">
          <mxGeometry x="992" y="505" width="90" height="25" as="geometry" />
        </mxCell>
        <mxCell id="218ae93e1282097f-69" value="Position 2" style="text;html=1;strokeColor=none;fillColor=none;align=center;verticalAlign=middle;whiteSpace=wrap;rounded=1;shadow=0;comic=0;fontFamily=Verdana;fontSize=10;" parent="1" vertex="1">
          <mxGeometry x="892" y="540" width="90" height="25" as="geometry" />
        </mxCell>
        <mxCell id="218ae93e1282097f-70" value="Position 2" style="text;html=1;strokeColor=none;fillColor=none;align=center;verticalAlign=middle;whiteSpace=wrap;rounded=1;shadow=0;comic=0;fontFamily=Verdana;fontSize=10;" parent="1" vertex="1">
          <mxGeometry x="992" y="540" width="90" height="25" as="geometry" />
        </mxCell>
        <mxCell id="218ae93e1282097f-71" value="Name" style="shape=actor;whiteSpace=wrap;html=1;rounded=0;shadow=0;comic=0;strokeWidth=1;fillColor=#CCCCCC;fontFamily=Verdana;align=center;strokeColor=none;labelPosition=center;verticalLabelPosition=bottom;verticalAlign=top;fontSize=10;" parent="1" vertex="1">
          <mxGeometry x="1327" y="450" width="24" height="30" as="geometry" />
        </mxCell>
        <mxCell id="218ae93e1282097f-72" value="Name" style="shape=actor;whiteSpace=wrap;html=1;rounded=0;shadow=0;comic=0;strokeWidth=1;fillColor=#CCCCCC;fontFamily=Verdana;align=center;strokeColor=none;labelPosition=center;verticalLabelPosition=bottom;verticalAlign=top;fontSize=10;" parent="1" vertex="1">
          <mxGeometry x="1435" y="450" width="24" height="30" as="geometry" />
        </mxCell>
        <mxCell id="218ae93e1282097f-73" value="Name" style="shape=actor;whiteSpace=wrap;html=1;rounded=0;shadow=0;comic=0;strokeWidth=1;fillColor=#CCCCCC;fontFamily=Verdana;align=center;strokeColor=none;labelPosition=center;verticalLabelPosition=bottom;verticalAlign=top;fontSize=10;" parent="1" vertex="1">
          <mxGeometry x="1235" y="450" width="24" height="30" as="geometry" />
        </mxCell>
        <mxCell id="218ae93e1282097f-74" value="Position 1" style="text;html=1;strokeColor=none;fillColor=none;align=center;verticalAlign=middle;whiteSpace=wrap;rounded=1;shadow=0;comic=0;fontFamily=Verdana;fontSize=10;" parent="1" vertex="1">
          <mxGeometry x="1202" y="505" width="90" height="25" as="geometry" />
        </mxCell>
        <mxCell id="218ae93e1282097f-75" value="Position 1" style="text;html=1;strokeColor=none;fillColor=none;align=center;verticalAlign=middle;whiteSpace=wrap;rounded=1;shadow=0;comic=0;fontFamily=Verdana;fontSize=10;" parent="1" vertex="1">
          <mxGeometry x="1302" y="505" width="90" height="25" as="geometry" />
        </mxCell>
        <mxCell id="218ae93e1282097f-76" value="Position 1" style="text;html=1;strokeColor=none;fillColor=none;align=center;verticalAlign=middle;whiteSpace=wrap;rounded=1;shadow=0;comic=0;fontFamily=Verdana;fontSize=10;" parent="1" vertex="1">
          <mxGeometry x="1402" y="505" width="90" height="25" as="geometry" />
        </mxCell>
        <mxCell id="218ae93e1282097f-77" value="Position 2" style="text;html=1;strokeColor=none;fillColor=none;align=center;verticalAlign=middle;whiteSpace=wrap;rounded=1;shadow=0;comic=0;fontFamily=Verdana;fontSize=10;" parent="1" vertex="1">
          <mxGeometry x="1202" y="540" width="90" height="25" as="geometry" />
        </mxCell>
        <mxCell id="218ae93e1282097f-78" value="Position 2" style="text;html=1;strokeColor=none;fillColor=none;align=center;verticalAlign=middle;whiteSpace=wrap;rounded=1;shadow=0;comic=0;fontFamily=Verdana;fontSize=10;" parent="1" vertex="1">
          <mxGeometry x="1302" y="540" width="90" height="25" as="geometry" />
        </mxCell>
        <mxCell id="218ae93e1282097f-79" value="Position 3" style="text;html=1;strokeColor=none;fillColor=none;align=center;verticalAlign=middle;whiteSpace=wrap;rounded=1;shadow=0;comic=0;fontFamily=Verdana;fontSize=10;" parent="1" vertex="1">
          <mxGeometry x="1402" y="540" width="90" height="25" as="geometry" />
        </mxCell>
        <mxCell id="218ae93e1282097f-80" value="Position 1" style="text;html=1;strokeColor=none;fillColor=none;align=center;verticalAlign=middle;whiteSpace=wrap;rounded=1;shadow=0;comic=0;fontFamily=Verdana;fontSize=10;" parent="1" vertex="1">
          <mxGeometry x="1610" y="505" width="90" height="25" as="geometry" />
        </mxCell>
        <mxCell id="218ae93e1282097f-81" value="Position 1" style="text;html=1;strokeColor=none;fillColor=none;align=center;verticalAlign=middle;whiteSpace=wrap;rounded=1;shadow=0;comic=0;fontFamily=Verdana;fontSize=10;" parent="1" vertex="1">
          <mxGeometry x="1710" y="505" width="90" height="25" as="geometry" />
        </mxCell>
        <mxCell id="218ae93e1282097f-82" value="Position 1" style="text;html=1;strokeColor=none;fillColor=none;align=center;verticalAlign=middle;whiteSpace=wrap;rounded=1;shadow=0;comic=0;fontFamily=Verdana;fontSize=10;" parent="1" vertex="1">
          <mxGeometry x="1810" y="505" width="90" height="25" as="geometry" />
        </mxCell>
        <mxCell id="218ae93e1282097f-83" value="Position 2" style="text;html=1;strokeColor=none;fillColor=none;align=center;verticalAlign=middle;whiteSpace=wrap;rounded=1;shadow=0;comic=0;fontFamily=Verdana;fontSize=10;" parent="1" vertex="1">
          <mxGeometry x="1610" y="540" width="90" height="25" as="geometry" />
        </mxCell>
        <mxCell id="218ae93e1282097f-84" value="Position 2" style="text;html=1;strokeColor=none;fillColor=none;align=center;verticalAlign=middle;whiteSpace=wrap;rounded=1;shadow=0;comic=0;fontFamily=Verdana;fontSize=10;" parent="1" vertex="1">
          <mxGeometry x="1710" y="540" width="90" height="25" as="geometry" />
        </mxCell>
        <mxCell id="218ae93e1282097f-85" value="Position 3" style="text;html=1;strokeColor=none;fillColor=none;align=center;verticalAlign=middle;whiteSpace=wrap;rounded=1;shadow=0;comic=0;fontFamily=Verdana;fontSize=10;" parent="1" vertex="1">
          <mxGeometry x="1810" y="540" width="90" height="25" as="geometry" />
        </mxCell>
        <mxCell id="218ae93e1282097f-86" value="Position 1" style="text;html=1;strokeColor=none;fillColor=none;align=center;verticalAlign=middle;whiteSpace=wrap;rounded=1;shadow=0;comic=0;fontFamily=Verdana;fontSize=10;" parent="1" vertex="1">
          <mxGeometry x="1910" y="505" width="90" height="25" as="geometry" />
        </mxCell>
        <mxCell id="218ae93e1282097f-87" value="Position 3" style="text;html=1;strokeColor=none;fillColor=none;align=center;verticalAlign=middle;whiteSpace=wrap;rounded=1;shadow=0;comic=0;fontFamily=Verdana;fontSize=10;" parent="1" vertex="1">
          <mxGeometry x="1910" y="540" width="90" height="25" as="geometry" />
        </mxCell>
        <mxCell id="218ae93e1282097f-8" value="&lt;span&gt;Name&lt;/span&gt;&lt;div&gt;&lt;span style=&quot;font-weight: normal&quot;&gt;Position&lt;/span&gt;&lt;/div&gt;" style="whiteSpace=wrap;html=1;rounded=1;shadow=0;comic=0;strokeWidth=2;fontFamily=Verdana;align=center;fontSize=12;fontStyle=1" parent="1" vertex="1">
          <mxGeometry x="144" y="330" width="200" height="50" as="geometry" />
        </mxCell>
        <mxCell id="218ae93e1282097f-9" value="" style="shape=actor;whiteSpace=wrap;html=1;rounded=0;shadow=0;comic=0;strokeWidth=1;fillColor=#CCCCCC;fontFamily=Verdana;align=center;strokeColor=none;fontSize=12;fontStyle=1" parent="1" vertex="1">
          <mxGeometry x="158" y="340" width="24" height="30" as="geometry" />
        </mxCell>
        <mxCell id="6257edae8c83ed4a-9" value="Name&lt;div&gt;&lt;span&gt;Position&lt;/span&gt;&lt;/div&gt;" style="whiteSpace=wrap;html=1;rounded=1;shadow=0;comic=0;strokeWidth=2;fontFamily=Verdana;align=center;fontSize=12;fontStyle=1" parent="1" vertex="1">
          <mxGeometry x="526" y="210" width="200" height="50" as="geometry" />
        </mxCell>
        <mxCell id="6257edae8c83ed4a-10" value="" style="shape=actor;whiteSpace=wrap;html=1;rounded=0;shadow=0;comic=0;strokeWidth=1;fillColor=#CCCCCC;fontFamily=Verdana;align=center;strokeColor=none;fontSize=12;fontStyle=1" parent="1" vertex="1">
          <mxGeometry x="540" y="220" width="24" height="30" as="geometry" />
        </mxCell>
        <mxCell id="6257edae8c83ed4a-21" value="Name&lt;div&gt;&lt;span&gt;Position&lt;/span&gt;&lt;/div&gt;" style="whiteSpace=wrap;html=1;rounded=1;shadow=0;comic=0;strokeWidth=2;fontFamily=Verdana;align=center;fontSize=12;fontStyle=1" parent="1" vertex="1">
          <mxGeometry x="524" y="330" width="200" height="50" as="geometry" />
        </mxCell>
        <mxCell id="6257edae8c83ed4a-22" value="" style="shape=actor;whiteSpace=wrap;html=1;rounded=0;shadow=0;comic=0;strokeWidth=1;fillColor=#CCCCCC;fontFamily=Verdana;align=center;strokeColor=none;fontSize=12;fontStyle=1" parent="1" vertex="1">
          <mxGeometry x="538" y="340" width="24" height="30" as="geometry" />
        </mxCell>
        <mxCell id="6257edae8c83ed4a-12" value="Name&lt;div&gt;&lt;span&gt;Position&lt;/span&gt;&lt;/div&gt;" style="whiteSpace=wrap;html=1;rounded=1;shadow=0;comic=0;strokeWidth=2;fontFamily=Verdana;align=center;fontSize=12;fontStyle=1" parent="1" vertex="1">
          <mxGeometry x="887" y="330" width="200" height="50" as="geometry" />
        </mxCell>
        <mxCell id="6257edae8c83ed4a-13" value="" style="shape=actor;whiteSpace=wrap;html=1;rounded=0;shadow=0;comic=0;strokeWidth=1;fillColor=#CCCCCC;fontFamily=Verdana;align=center;strokeColor=none;fontSize=12;fontStyle=1" parent="1" vertex="1">
          <mxGeometry x="901" y="340" width="24" height="30" as="geometry" />
        </mxCell>
        <mxCell id="6257edae8c83ed4a-1" value="Name&lt;div&gt;&lt;span&gt;Position&lt;/span&gt;&lt;/div&gt;" style="whiteSpace=wrap;html=1;rounded=1;shadow=0;comic=0;strokeWidth=2;fontFamily=Verdana;align=center;fontSize=12;fontStyle=1" parent="1" vertex="1">
          <mxGeometry x="887" y="140" width="200" height="50" as="geometry" />
        </mxCell>
        <mxCell id="6257edae8c83ed4a-2" value="" style="shape=actor;whiteSpace=wrap;html=1;rounded=0;shadow=0;comic=0;strokeWidth=1;fillColor=#CCCCCC;fontFamily=Verdana;align=center;strokeColor=none;fontSize=12;fontStyle=1" parent="1" vertex="1">
          <mxGeometry x="901" y="150" width="24" height="30" as="geometry" />
        </mxCell>
        <mxCell id="218ae93e1282097f-2" value="Name&lt;div&gt;&lt;span&gt;Position&lt;/span&gt;&lt;/div&gt;" style="whiteSpace=wrap;html=1;rounded=1;shadow=0;comic=0;strokeWidth=2;fontFamily=Verdana;align=center;fontSize=12;fontStyle=1" parent="1" vertex="1">
          <mxGeometry x="1247" y="210" width="200" height="50" as="geometry" />
        </mxCell>
        <mxCell id="218ae93e1282097f-3" value="" style="shape=actor;whiteSpace=wrap;html=1;rounded=0;shadow=0;comic=0;strokeWidth=1;fillColor=#CCCCCC;fontFamily=Verdana;align=center;strokeColor=none;fontSize=12;fontStyle=1" parent="1" vertex="1">
          <mxGeometry x="1261" y="220" width="24" height="30" as="geometry" />
        </mxCell>
        <mxCell id="6257edae8c83ed4a-24" value="Name&lt;div&gt;&lt;span&gt;Position&lt;/span&gt;&lt;/div&gt;" style="whiteSpace=wrap;html=1;rounded=1;shadow=0;comic=0;strokeWidth=2;fontFamily=Verdana;align=center;fontSize=12;fontStyle=1" parent="1" vertex="1">
          <mxGeometry x="1247" y="330" width="200" height="50" as="geometry" />
        </mxCell>
        <mxCell id="6257edae8c83ed4a-25" value="" style="shape=actor;whiteSpace=wrap;html=1;rounded=0;shadow=0;comic=0;strokeWidth=1;fillColor=#CCCCCC;fontFamily=Verdana;align=center;strokeColor=none;fontSize=12;fontStyle=1" parent="1" vertex="1">
          <mxGeometry x="1261" y="340" width="24" height="30" as="geometry" />
        </mxCell>
        <mxCell id="218ae93e1282097f-5" value="Name&lt;div&gt;&lt;span&gt;Position&lt;/span&gt;&lt;/div&gt;" style="whiteSpace=wrap;html=1;rounded=1;shadow=0;comic=0;strokeWidth=2;fontFamily=Verdana;align=center;fontSize=12;fontStyle=1" parent="1" vertex="1">
          <mxGeometry x="1637" y="330" width="200" height="50" as="geometry" />
        </mxCell>
        <mxCell id="218ae93e1282097f-6" value="" style="shape=actor;whiteSpace=wrap;html=1;rounded=0;shadow=0;comic=0;strokeWidth=1;fillColor=#CCCCCC;fontFamily=Verdana;align=center;strokeColor=none;fontSize=12;fontStyle=1" parent="1" vertex="1">
          <mxGeometry x="1651" y="340" width="24" height="30" as="geometry" />
        </mxCell>
      </root>
    </mxGraphModel>
  </diagram>
  <diagram id="zSL_OOxkC_Cdbclz-27Z" name="第 2 页">
    <mxGraphModel dx="1002" dy="597" grid="1" gridSize="10" guides="1" tooltips="1" connect="1" arrows="1" fold="1" page="1" pageScale="1" pageWidth="827" pageHeight="1169" math="0" shadow="0">
      <root>
        <mxCell id="0" />
        <mxCell id="1" parent="0" />
        <mxCell id="a7pmDOKm3n9qqqR5QXC4-1" value="前台功能模块" style="rounded=0;whiteSpace=wrap;html=1;" vertex="1" parent="1">
          <mxGeometry x="360" y="120" width="120" height="40" as="geometry" />
        </mxCell>
        <mxCell id="a7pmDOKm3n9qqqR5QXC4-4" value="学生登录" style="rounded=0;whiteSpace=wrap;html=1;" vertex="1" parent="1">
          <mxGeometry x="360" y="200" width="120" height="40" as="geometry" />
        </mxCell>
        <mxCell id="a7pmDOKm3n9qqqR5QXC4-5" value="" style="endArrow=none;html=1;rounded=0;" edge="1" parent="1">
          <mxGeometry width="50" height="50" relative="1" as="geometry">
            <mxPoint x="200" y="280" as="sourcePoint" />
            <mxPoint x="640" y="280" as="targetPoint" />
          </mxGeometry>
        </mxCell>
        <mxCell id="a7pmDOKm3n9qqqR5QXC4-6" value="" style="endArrow=none;html=1;rounded=0;exitX=0.5;exitY=1;exitDx=0;exitDy=0;" edge="1" parent="1" source="a7pmDOKm3n9qqqR5QXC4-1">
          <mxGeometry width="50" height="50" relative="1" as="geometry">
            <mxPoint x="390" y="280" as="sourcePoint" />
            <mxPoint x="420" y="200" as="targetPoint" />
          </mxGeometry>
        </mxCell>
        <mxCell id="GiOdGweL4pmrFDT5CfTH-2" value="" style="endArrow=none;html=1;rounded=0;entryX=0.5;entryY=1;entryDx=0;entryDy=0;" edge="1" parent="1" target="a7pmDOKm3n9qqqR5QXC4-4">
          <mxGeometry width="50" height="50" relative="1" as="geometry">
            <mxPoint x="420" y="280" as="sourcePoint" />
            <mxPoint x="440" y="230" as="targetPoint" />
          </mxGeometry>
        </mxCell>
        <mxCell id="GiOdGweL4pmrFDT5CfTH-3" value="" style="endArrow=none;html=1;rounded=0;" edge="1" parent="1">
          <mxGeometry width="50" height="50" relative="1" as="geometry">
            <mxPoint x="199.5" y="320" as="sourcePoint" />
            <mxPoint x="199.5" y="280" as="targetPoint" />
            <Array as="points">
              <mxPoint x="199.5" y="320" />
            </Array>
          </mxGeometry>
        </mxCell>
        <mxCell id="GiOdGweL4pmrFDT5CfTH-5" value="首页" style="rounded=0;whiteSpace=wrap;html=1;" vertex="1" parent="1">
          <mxGeometry x="180" y="320" width="40" height="80" as="geometry" />
        </mxCell>
        <mxCell id="GiOdGweL4pmrFDT5CfTH-6" value="" style="endArrow=none;html=1;rounded=0;" edge="1" parent="1">
          <mxGeometry width="50" height="50" relative="1" as="geometry">
            <mxPoint x="280" y="320" as="sourcePoint" />
            <mxPoint x="280" y="280" as="targetPoint" />
          </mxGeometry>
        </mxCell>
        <mxCell id="GiOdGweL4pmrFDT5CfTH-7" value="" style="endArrow=none;html=1;rounded=0;" edge="1" parent="1">
          <mxGeometry width="50" height="50" relative="1" as="geometry">
            <mxPoint x="480" y="320" as="sourcePoint" />
            <mxPoint x="480" y="280" as="targetPoint" />
          </mxGeometry>
        </mxCell>
        <mxCell id="GiOdGweL4pmrFDT5CfTH-8" value="" style="endArrow=none;html=1;rounded=0;" edge="1" parent="1">
          <mxGeometry width="50" height="50" relative="1" as="geometry">
            <mxPoint x="559.5" y="320" as="sourcePoint" />
            <mxPoint x="559.5" y="280" as="targetPoint" />
          </mxGeometry>
        </mxCell>
        <mxCell id="GiOdGweL4pmrFDT5CfTH-9" value="课程及视频" style="rounded=0;whiteSpace=wrap;html=1;" vertex="1" parent="1">
          <mxGeometry x="260" y="320" width="40" height="80" as="geometry" />
        </mxCell>
        <mxCell id="GiOdGweL4pmrFDT5CfTH-10" value="讨论" style="rounded=0;whiteSpace=wrap;html=1;" vertex="1" parent="1">
          <mxGeometry x="340" y="320" width="40" height="80" as="geometry" />
        </mxCell>
        <mxCell id="GiOdGweL4pmrFDT5CfTH-12" value="公告" style="rounded=0;whiteSpace=wrap;html=1;" vertex="1" parent="1">
          <mxGeometry x="460" y="320" width="40" height="80" as="geometry" />
        </mxCell>
        <mxCell id="GiOdGweL4pmrFDT5CfTH-13" value="试卷" style="rounded=0;whiteSpace=wrap;html=1;" vertex="1" parent="1">
          <mxGeometry x="540" y="320" width="40" height="80" as="geometry" />
        </mxCell>
        <mxCell id="GiOdGweL4pmrFDT5CfTH-14" value="个人中心" style="rounded=0;whiteSpace=wrap;html=1;" vertex="1" parent="1">
          <mxGeometry x="620" y="320" width="40" height="80" as="geometry" />
        </mxCell>
        <mxCell id="GiOdGweL4pmrFDT5CfTH-16" value="" style="endArrow=none;html=1;rounded=0;" edge="1" parent="1" source="GiOdGweL4pmrFDT5CfTH-14">
          <mxGeometry width="50" height="50" relative="1" as="geometry">
            <mxPoint x="390" y="280" as="sourcePoint" />
            <mxPoint x="640" y="280" as="targetPoint" />
          </mxGeometry>
        </mxCell>
        <mxCell id="GiOdGweL4pmrFDT5CfTH-17" value="" style="endArrow=none;html=1;rounded=0;exitX=0.5;exitY=0;exitDx=0;exitDy=0;" edge="1" parent="1" source="GiOdGweL4pmrFDT5CfTH-10">
          <mxGeometry width="50" height="50" relative="1" as="geometry">
            <mxPoint x="390" y="280" as="sourcePoint" />
            <mxPoint x="360" y="280" as="targetPoint" />
          </mxGeometry>
        </mxCell>
        <mxCell id="GiOdGweL4pmrFDT5CfTH-18" value="快捷查看公告" style="rounded=0;whiteSpace=wrap;html=1;" vertex="1" parent="1">
          <mxGeometry x="170" y="420" width="20" height="90" as="geometry" />
        </mxCell>
        <mxCell id="GiOdGweL4pmrFDT5CfTH-19" value="快捷查看课程" style="rounded=0;whiteSpace=wrap;html=1;" vertex="1" parent="1">
          <mxGeometry x="210" y="420" width="20" height="90" as="geometry" />
        </mxCell>
        <mxCell id="GiOdGweL4pmrFDT5CfTH-22" value="查看课程信息" style="rounded=0;whiteSpace=wrap;html=1;" vertex="1" parent="1">
          <mxGeometry x="250" y="420" width="20" height="90" as="geometry" />
        </mxCell>
        <mxCell id="GiOdGweL4pmrFDT5CfTH-23" value="下载视频观看" style="rounded=0;whiteSpace=wrap;html=1;" vertex="1" parent="1">
          <mxGeometry x="290" y="420" width="20" height="90" as="geometry" />
        </mxCell>
        <mxCell id="GiOdGweL4pmrFDT5CfTH-24" value="发起讨论" style="rounded=0;whiteSpace=wrap;html=1;" vertex="1" parent="1">
          <mxGeometry x="330" y="420" width="20" height="90" as="geometry" />
        </mxCell>
        <mxCell id="GiOdGweL4pmrFDT5CfTH-25" value="回复讨论" style="rounded=0;whiteSpace=wrap;html=1;" vertex="1" parent="1">
          <mxGeometry x="370" y="420" width="20" height="90" as="geometry" />
        </mxCell>
        <mxCell id="GiOdGweL4pmrFDT5CfTH-26" value="查看公告" style="rounded=0;whiteSpace=wrap;html=1;" vertex="1" parent="1">
          <mxGeometry x="450" y="420" width="20" height="90" as="geometry" />
        </mxCell>
        <mxCell id="GiOdGweL4pmrFDT5CfTH-27" value="回复公告" style="rounded=0;whiteSpace=wrap;html=1;" vertex="1" parent="1">
          <mxGeometry x="490" y="420" width="20" height="90" as="geometry" />
        </mxCell>
        <mxCell id="GiOdGweL4pmrFDT5CfTH-28" value="查看发布试卷" style="rounded=0;whiteSpace=wrap;html=1;" vertex="1" parent="1">
          <mxGeometry x="530" y="420" width="20" height="90" as="geometry" />
        </mxCell>
        <mxCell id="GiOdGweL4pmrFDT5CfTH-29" value="开始考试" style="rounded=0;whiteSpace=wrap;html=1;" vertex="1" parent="1">
          <mxGeometry x="570" y="420" width="20" height="90" as="geometry" />
        </mxCell>
        <mxCell id="GiOdGweL4pmrFDT5CfTH-30" value="查看个人信息" style="rounded=0;whiteSpace=wrap;html=1;" vertex="1" parent="1">
          <mxGeometry x="610" y="420" width="20" height="90" as="geometry" />
        </mxCell>
        <mxCell id="GiOdGweL4pmrFDT5CfTH-31" value="查看考试记录" style="rounded=0;whiteSpace=wrap;html=1;" vertex="1" parent="1">
          <mxGeometry x="650" y="420" width="20" height="90" as="geometry" />
        </mxCell>
        <mxCell id="GiOdGweL4pmrFDT5CfTH-32" value="查看错题记录" style="rounded=0;whiteSpace=wrap;html=1;" vertex="1" parent="1">
          <mxGeometry x="690" y="420" width="20" height="90" as="geometry" />
        </mxCell>
        <mxCell id="GiOdGweL4pmrFDT5CfTH-33" value="" style="endArrow=none;html=1;rounded=0;" edge="1" parent="1">
          <mxGeometry width="50" height="50" relative="1" as="geometry">
            <mxPoint x="180" y="410" as="sourcePoint" />
            <mxPoint x="220" y="410" as="targetPoint" />
          </mxGeometry>
        </mxCell>
        <mxCell id="GiOdGweL4pmrFDT5CfTH-34" value="" style="endArrow=none;html=1;rounded=0;exitX=0.5;exitY=1;exitDx=0;exitDy=0;" edge="1" parent="1" source="GiOdGweL4pmrFDT5CfTH-5">
          <mxGeometry width="50" height="50" relative="1" as="geometry">
            <mxPoint x="390" y="360" as="sourcePoint" />
            <mxPoint x="200" y="410" as="targetPoint" />
          </mxGeometry>
        </mxCell>
        <mxCell id="GiOdGweL4pmrFDT5CfTH-35" value="" style="endArrow=none;html=1;rounded=0;" edge="1" parent="1" target="GiOdGweL4pmrFDT5CfTH-18">
          <mxGeometry width="50" height="50" relative="1" as="geometry">
            <mxPoint x="180" y="410" as="sourcePoint" />
            <mxPoint x="210" y="420" as="targetPoint" />
            <Array as="points">
              <mxPoint x="180" y="410" />
            </Array>
          </mxGeometry>
        </mxCell>
        <mxCell id="GiOdGweL4pmrFDT5CfTH-36" value="" style="endArrow=none;html=1;rounded=0;exitX=0.5;exitY=1;exitDx=0;exitDy=0;" edge="1" parent="1">
          <mxGeometry width="50" height="50" relative="1" as="geometry">
            <mxPoint x="220" y="420" as="sourcePoint" />
            <mxPoint x="220" y="410" as="targetPoint" />
          </mxGeometry>
        </mxCell>
        <mxCell id="GiOdGweL4pmrFDT5CfTH-37" value="" style="endArrow=none;html=1;rounded=0;entryX=0.5;entryY=0;entryDx=0;entryDy=0;" edge="1" parent="1" target="GiOdGweL4pmrFDT5CfTH-22">
          <mxGeometry width="50" height="50" relative="1" as="geometry">
            <mxPoint x="260" y="410" as="sourcePoint" />
            <mxPoint x="230" y="440" as="targetPoint" />
          </mxGeometry>
        </mxCell>
        <mxCell id="GiOdGweL4pmrFDT5CfTH-38" value="" style="endArrow=none;html=1;rounded=0;entryX=0.5;entryY=1;entryDx=0;entryDy=0;" edge="1" parent="1" target="GiOdGweL4pmrFDT5CfTH-9">
          <mxGeometry width="50" height="50" relative="1" as="geometry">
            <mxPoint x="280" y="410" as="sourcePoint" />
            <mxPoint x="240" y="450" as="targetPoint" />
          </mxGeometry>
        </mxCell>
        <mxCell id="GiOdGweL4pmrFDT5CfTH-39" value="" style="endArrow=none;html=1;rounded=0;" edge="1" parent="1" source="GiOdGweL4pmrFDT5CfTH-23">
          <mxGeometry width="50" height="50" relative="1" as="geometry">
            <mxPoint x="250" y="450" as="sourcePoint" />
            <mxPoint x="300" y="410" as="targetPoint" />
          </mxGeometry>
        </mxCell>
        <mxCell id="GiOdGweL4pmrFDT5CfTH-40" value="" style="endArrow=none;html=1;rounded=0;exitX=0.5;exitY=0;exitDx=0;exitDy=0;" edge="1" parent="1" source="GiOdGweL4pmrFDT5CfTH-24">
          <mxGeometry width="50" height="50" relative="1" as="geometry">
            <mxPoint x="260" y="460" as="sourcePoint" />
            <mxPoint x="340" y="410" as="targetPoint" />
          </mxGeometry>
        </mxCell>
        <mxCell id="GiOdGweL4pmrFDT5CfTH-41" value="" style="endArrow=none;html=1;rounded=0;exitX=0.5;exitY=0;exitDx=0;exitDy=0;" edge="1" parent="1" source="GiOdGweL4pmrFDT5CfTH-25">
          <mxGeometry width="50" height="50" relative="1" as="geometry">
            <mxPoint x="270" y="470" as="sourcePoint" />
            <mxPoint x="380" y="410" as="targetPoint" />
          </mxGeometry>
        </mxCell>
        <mxCell id="GiOdGweL4pmrFDT5CfTH-42" value="" style="endArrow=none;html=1;rounded=0;entryX=0.5;entryY=1;entryDx=0;entryDy=0;" edge="1" parent="1" target="GiOdGweL4pmrFDT5CfTH-10">
          <mxGeometry width="50" height="50" relative="1" as="geometry">
            <mxPoint x="360" y="410" as="sourcePoint" />
            <mxPoint x="280" y="490" as="targetPoint" />
          </mxGeometry>
        </mxCell>
        <mxCell id="GiOdGweL4pmrFDT5CfTH-43" value="" style="endArrow=none;html=1;rounded=0;entryX=0.5;entryY=1;entryDx=0;entryDy=0;" edge="1" parent="1" target="GiOdGweL4pmrFDT5CfTH-12">
          <mxGeometry width="50" height="50" relative="1" as="geometry">
            <mxPoint x="480" y="410" as="sourcePoint" />
            <mxPoint x="290" y="500" as="targetPoint" />
          </mxGeometry>
        </mxCell>
        <mxCell id="GiOdGweL4pmrFDT5CfTH-44" value="" style="endArrow=none;html=1;rounded=0;" edge="1" parent="1">
          <mxGeometry width="50" height="50" relative="1" as="geometry">
            <mxPoint x="180" y="410" as="sourcePoint" />
            <mxPoint x="220" y="410" as="targetPoint" />
          </mxGeometry>
        </mxCell>
        <mxCell id="GiOdGweL4pmrFDT5CfTH-46" value="" style="endArrow=none;html=1;rounded=0;exitX=0.5;exitY=0;exitDx=0;exitDy=0;" edge="1" parent="1" source="GiOdGweL4pmrFDT5CfTH-26">
          <mxGeometry width="50" height="50" relative="1" as="geometry">
            <mxPoint x="490" y="420" as="sourcePoint" />
            <mxPoint x="460" y="410" as="targetPoint" />
          </mxGeometry>
        </mxCell>
        <mxCell id="GiOdGweL4pmrFDT5CfTH-47" value="" style="endArrow=none;html=1;rounded=0;entryX=0.5;entryY=1;entryDx=0;entryDy=0;" edge="1" parent="1">
          <mxGeometry width="50" height="50" relative="1" as="geometry">
            <mxPoint x="500" y="420" as="sourcePoint" />
            <mxPoint x="500" y="420" as="targetPoint" />
            <Array as="points">
              <mxPoint x="500" y="410" />
            </Array>
          </mxGeometry>
        </mxCell>
        <mxCell id="GiOdGweL4pmrFDT5CfTH-48" value="" style="endArrow=none;html=1;rounded=0;exitX=0.5;exitY=0;exitDx=0;exitDy=0;" edge="1" parent="1" source="GiOdGweL4pmrFDT5CfTH-28">
          <mxGeometry width="50" height="50" relative="1" as="geometry">
            <mxPoint x="510" y="440" as="sourcePoint" />
            <mxPoint x="540" y="410" as="targetPoint" />
          </mxGeometry>
        </mxCell>
        <mxCell id="GiOdGweL4pmrFDT5CfTH-49" value="" style="endArrow=none;html=1;rounded=0;entryX=0.5;entryY=1;entryDx=0;entryDy=0;" edge="1" parent="1" target="GiOdGweL4pmrFDT5CfTH-13">
          <mxGeometry width="50" height="50" relative="1" as="geometry">
            <mxPoint x="560" y="410" as="sourcePoint" />
            <mxPoint x="520" y="440" as="targetPoint" />
          </mxGeometry>
        </mxCell>
        <mxCell id="GiOdGweL4pmrFDT5CfTH-50" value="" style="endArrow=none;html=1;rounded=0;" edge="1" parent="1" source="GiOdGweL4pmrFDT5CfTH-29">
          <mxGeometry width="50" height="50" relative="1" as="geometry">
            <mxPoint x="530" y="460" as="sourcePoint" />
            <mxPoint x="580" y="410" as="targetPoint" />
          </mxGeometry>
        </mxCell>
        <mxCell id="GiOdGweL4pmrFDT5CfTH-51" value="" style="endArrow=none;html=1;rounded=0;" edge="1" parent="1" source="GiOdGweL4pmrFDT5CfTH-30">
          <mxGeometry width="50" height="50" relative="1" as="geometry">
            <mxPoint x="540" y="470" as="sourcePoint" />
            <mxPoint x="620" y="410" as="targetPoint" />
          </mxGeometry>
        </mxCell>
        <mxCell id="GiOdGweL4pmrFDT5CfTH-52" value="" style="endArrow=none;html=1;rounded=0;exitX=0.5;exitY=0;exitDx=0;exitDy=0;" edge="1" parent="1" source="GiOdGweL4pmrFDT5CfTH-31">
          <mxGeometry width="50" height="50" relative="1" as="geometry">
            <mxPoint x="550" y="480" as="sourcePoint" />
            <mxPoint x="660" y="410" as="targetPoint" />
          </mxGeometry>
        </mxCell>
        <mxCell id="GiOdGweL4pmrFDT5CfTH-53" value="" style="endArrow=none;html=1;rounded=0;exitX=0.5;exitY=0;exitDx=0;exitDy=0;" edge="1" parent="1" source="GiOdGweL4pmrFDT5CfTH-32">
          <mxGeometry width="50" height="50" relative="1" as="geometry">
            <mxPoint x="560" y="490" as="sourcePoint" />
            <mxPoint x="700" y="410" as="targetPoint" />
          </mxGeometry>
        </mxCell>
        <mxCell id="GiOdGweL4pmrFDT5CfTH-54" value="" style="endArrow=none;html=1;rounded=0;entryX=0.5;entryY=1;entryDx=0;entryDy=0;" edge="1" parent="1" target="GiOdGweL4pmrFDT5CfTH-14">
          <mxGeometry width="50" height="50" relative="1" as="geometry">
            <mxPoint x="640" y="410" as="sourcePoint" />
            <mxPoint x="570" y="490" as="targetPoint" />
          </mxGeometry>
        </mxCell>
        <mxCell id="GiOdGweL4pmrFDT5CfTH-55" value="" style="endArrow=none;html=1;rounded=0;" edge="1" parent="1">
          <mxGeometry width="50" height="50" relative="1" as="geometry">
            <mxPoint x="260" y="410" as="sourcePoint" />
            <mxPoint x="300" y="410" as="targetPoint" />
          </mxGeometry>
        </mxCell>
        <mxCell id="GiOdGweL4pmrFDT5CfTH-56" value="" style="endArrow=none;html=1;rounded=0;" edge="1" parent="1">
          <mxGeometry width="50" height="50" relative="1" as="geometry">
            <mxPoint x="340" y="410" as="sourcePoint" />
            <mxPoint x="380" y="410" as="targetPoint" />
          </mxGeometry>
        </mxCell>
        <mxCell id="GiOdGweL4pmrFDT5CfTH-58" value="" style="endArrow=none;html=1;rounded=0;" edge="1" parent="1">
          <mxGeometry width="50" height="50" relative="1" as="geometry">
            <mxPoint x="460" y="410" as="sourcePoint" />
            <mxPoint x="500" y="410" as="targetPoint" />
          </mxGeometry>
        </mxCell>
        <mxCell id="GiOdGweL4pmrFDT5CfTH-59" value="" style="endArrow=none;html=1;rounded=0;" edge="1" parent="1">
          <mxGeometry width="50" height="50" relative="1" as="geometry">
            <mxPoint x="540" y="410" as="sourcePoint" />
            <mxPoint x="580" y="410" as="targetPoint" />
          </mxGeometry>
        </mxCell>
        <mxCell id="GiOdGweL4pmrFDT5CfTH-60" value="" style="endArrow=none;html=1;rounded=0;" edge="1" parent="1">
          <mxGeometry width="50" height="50" relative="1" as="geometry">
            <mxPoint x="620" y="410" as="sourcePoint" />
            <mxPoint x="700" y="410" as="targetPoint" />
          </mxGeometry>
        </mxCell>
      </root>
    </mxGraphModel>
  </diagram>
  <diagram id="64REugd_ti8dxeU3RtEv" name="第 3 页">
    <mxGraphModel dx="2863" dy="1706" grid="1" gridSize="10" guides="1" tooltips="1" connect="1" arrows="1" fold="1" page="1" pageScale="1" pageWidth="827" pageHeight="1169" math="0" shadow="0">
      <root>
        <mxCell id="0" />
        <mxCell id="1" parent="0" />
        <mxCell id="T8sFZcmI8J5siICjTdkP-1" value="前后功能模块" style="rounded=0;whiteSpace=wrap;html=1;" vertex="1" parent="1">
          <mxGeometry x="820" y="120" width="120" height="40" as="geometry" />
        </mxCell>
        <mxCell id="T8sFZcmI8J5siICjTdkP-2" value="学生登录" style="rounded=0;whiteSpace=wrap;html=1;" vertex="1" parent="1">
          <mxGeometry x="240" y="200" width="20" height="80" as="geometry" />
        </mxCell>
        <mxCell id="T8sFZcmI8J5siICjTdkP-3" value="" style="endArrow=none;html=1;rounded=0;" edge="1" parent="1">
          <mxGeometry width="50" height="50" relative="1" as="geometry">
            <mxPoint x="70" y="300" as="sourcePoint" />
            <mxPoint x="430" y="300" as="targetPoint" />
          </mxGeometry>
        </mxCell>
        <mxCell id="T8sFZcmI8J5siICjTdkP-4" value="" style="endArrow=none;html=1;rounded=0;exitX=0.5;exitY=1;exitDx=0;exitDy=0;" edge="1" parent="1">
          <mxGeometry width="50" height="50" relative="1" as="geometry">
            <mxPoint x="880" y="160" as="sourcePoint" />
            <mxPoint x="880" y="200" as="targetPoint" />
          </mxGeometry>
        </mxCell>
        <mxCell id="T8sFZcmI8J5siICjTdkP-5" value="" style="endArrow=none;html=1;rounded=0;entryX=0.5;entryY=1;entryDx=0;entryDy=0;" edge="1" parent="1" target="T8sFZcmI8J5siICjTdkP-2">
          <mxGeometry width="50" height="50" relative="1" as="geometry">
            <mxPoint x="250" y="300" as="sourcePoint" />
            <mxPoint x="270" y="240" as="targetPoint" />
          </mxGeometry>
        </mxCell>
        <mxCell id="T8sFZcmI8J5siICjTdkP-6" value="" style="endArrow=none;html=1;rounded=0;exitX=0.5;exitY=0;exitDx=0;exitDy=0;" edge="1" parent="1" source="T8sFZcmI8J5siICjTdkP-7">
          <mxGeometry width="50" height="50" relative="1" as="geometry">
            <mxPoint x="78.89" y="340" as="sourcePoint" />
            <mxPoint x="70" y="300" as="targetPoint" />
            <Array as="points" />
          </mxGeometry>
        </mxCell>
        <mxCell id="T8sFZcmI8J5siICjTdkP-7" value="首页" style="rounded=0;whiteSpace=wrap;html=1;" vertex="1" parent="1">
          <mxGeometry x="50" y="340" width="40" height="80" as="geometry" />
        </mxCell>
        <mxCell id="T8sFZcmI8J5siICjTdkP-8" value="" style="endArrow=none;html=1;rounded=0;exitX=0.5;exitY=0;exitDx=0;exitDy=0;" edge="1" parent="1" source="T8sFZcmI8J5siICjTdkP-11">
          <mxGeometry width="50" height="50" relative="1" as="geometry">
            <mxPoint x="110" y="340" as="sourcePoint" />
            <mxPoint x="130" y="300" as="targetPoint" />
            <Array as="points" />
          </mxGeometry>
        </mxCell>
        <mxCell id="T8sFZcmI8J5siICjTdkP-9" value="" style="endArrow=none;html=1;rounded=0;exitX=0.5;exitY=0;exitDx=0;exitDy=0;" edge="1" parent="1" source="T8sFZcmI8J5siICjTdkP-13">
          <mxGeometry width="50" height="50" relative="1" as="geometry">
            <mxPoint x="310" y="340" as="sourcePoint" />
            <mxPoint x="250" y="300" as="targetPoint" />
            <Array as="points" />
          </mxGeometry>
        </mxCell>
        <mxCell id="T8sFZcmI8J5siICjTdkP-10" value="" style="endArrow=none;html=1;rounded=0;" edge="1" parent="1">
          <mxGeometry width="50" height="50" relative="1" as="geometry">
            <mxPoint x="309.44" y="340" as="sourcePoint" />
            <mxPoint x="309.44" y="300" as="targetPoint" />
          </mxGeometry>
        </mxCell>
        <mxCell id="T8sFZcmI8J5siICjTdkP-11" value="课程及视频" style="rounded=0;whiteSpace=wrap;html=1;" vertex="1" parent="1">
          <mxGeometry x="110" y="340" width="40" height="80" as="geometry" />
        </mxCell>
        <mxCell id="T8sFZcmI8J5siICjTdkP-12" value="讨论" style="rounded=0;whiteSpace=wrap;html=1;" vertex="1" parent="1">
          <mxGeometry x="170" y="340" width="40" height="80" as="geometry" />
        </mxCell>
        <mxCell id="T8sFZcmI8J5siICjTdkP-13" value="公告" style="rounded=0;whiteSpace=wrap;html=1;" vertex="1" parent="1">
          <mxGeometry x="230" y="340" width="40" height="80" as="geometry" />
        </mxCell>
        <mxCell id="T8sFZcmI8J5siICjTdkP-14" value="试卷" style="rounded=0;whiteSpace=wrap;html=1;" vertex="1" parent="1">
          <mxGeometry x="290" y="340" width="40" height="80" as="geometry" />
        </mxCell>
        <mxCell id="T8sFZcmI8J5siICjTdkP-15" value="个人中心" style="rounded=0;whiteSpace=wrap;html=1;" vertex="1" parent="1">
          <mxGeometry x="410" y="340" width="40" height="80" as="geometry" />
        </mxCell>
        <mxCell id="T8sFZcmI8J5siICjTdkP-16" value="" style="endArrow=none;html=1;rounded=0;" edge="1" parent="1" source="T8sFZcmI8J5siICjTdkP-15">
          <mxGeometry width="50" height="50" relative="1" as="geometry">
            <mxPoint x="216.5" y="300" as="sourcePoint" />
            <mxPoint x="430.5" y="300" as="targetPoint" />
          </mxGeometry>
        </mxCell>
        <mxCell id="T8sFZcmI8J5siICjTdkP-17" value="" style="endArrow=none;html=1;rounded=0;exitX=0.5;exitY=0;exitDx=0;exitDy=0;" edge="1" parent="1" source="T8sFZcmI8J5siICjTdkP-12">
          <mxGeometry width="50" height="50" relative="1" as="geometry">
            <mxPoint x="220" y="300" as="sourcePoint" />
            <mxPoint x="190" y="300" as="targetPoint" />
          </mxGeometry>
        </mxCell>
        <mxCell id="T8sFZcmI8J5siICjTdkP-18" value="查看课程视频留言" style="rounded=0;whiteSpace=wrap;html=1;" vertex="1" parent="1">
          <mxGeometry x="130" y="440" width="20" height="120" as="geometry" />
        </mxCell>
        <mxCell id="T8sFZcmI8J5siICjTdkP-19" value="欢迎" style="rounded=0;whiteSpace=wrap;html=1;" vertex="1" parent="1">
          <mxGeometry x="60" y="440" width="20" height="90" as="geometry" />
        </mxCell>
        <mxCell id="T8sFZcmI8J5siICjTdkP-20" value="查看课程资源信息" style="rounded=0;whiteSpace=wrap;html=1;" vertex="1" parent="1">
          <mxGeometry x="100" y="440" width="20" height="120" as="geometry" />
        </mxCell>
        <mxCell id="T8sFZcmI8J5siICjTdkP-21" value="删除讨论" style="rounded=0;whiteSpace=wrap;html=1;" vertex="1" parent="1">
          <mxGeometry x="800" y="440" width="20" height="90" as="geometry" />
        </mxCell>
        <mxCell id="T8sFZcmI8J5siICjTdkP-23" value="回复讨论" style="rounded=0;whiteSpace=wrap;html=1;" vertex="1" parent="1">
          <mxGeometry x="200" y="440" width="20" height="90" as="geometry" />
        </mxCell>
        <mxCell id="T8sFZcmI8J5siICjTdkP-24" value="查看公告" style="rounded=0;whiteSpace=wrap;html=1;" vertex="1" parent="1">
          <mxGeometry x="240" y="440" width="20" height="90" as="geometry" />
        </mxCell>
        <mxCell id="T8sFZcmI8J5siICjTdkP-26" value="查看发布试卷" style="rounded=0;whiteSpace=wrap;html=1;" vertex="1" parent="1">
          <mxGeometry x="270" y="440" width="20" height="90" as="geometry" />
        </mxCell>
        <mxCell id="T8sFZcmI8J5siICjTdkP-27" value="查看作业详情" style="rounded=0;whiteSpace=wrap;html=1;" vertex="1" parent="1">
          <mxGeometry x="330" y="440" width="20" height="90" as="geometry" />
        </mxCell>
        <mxCell id="T8sFZcmI8J5siICjTdkP-28" value="查看个人信息" style="rounded=0;whiteSpace=wrap;html=1;" vertex="1" parent="1">
          <mxGeometry x="420" y="440" width="20" height="90" as="geometry" />
        </mxCell>
        <mxCell id="T8sFZcmI8J5siICjTdkP-29" value="修改个人信息" style="rounded=0;whiteSpace=wrap;html=1;" vertex="1" parent="1">
          <mxGeometry x="450" y="440" width="20" height="90" as="geometry" />
        </mxCell>
        <mxCell id="T8sFZcmI8J5siICjTdkP-30" value="修改密码" style="rounded=0;whiteSpace=wrap;html=1;" vertex="1" parent="1">
          <mxGeometry x="480" y="440" width="20" height="90" as="geometry" />
        </mxCell>
        <mxCell id="T8sFZcmI8J5siICjTdkP-34" value="" style="endArrow=none;html=1;rounded=0;exitX=0.5;exitY=0;exitDx=0;exitDy=0;" edge="1" parent="1" source="T8sFZcmI8J5siICjTdkP-19">
          <mxGeometry width="50" height="50" relative="1" as="geometry">
            <mxPoint x="70" y="430" as="sourcePoint" />
            <mxPoint x="70" y="420" as="targetPoint" />
          </mxGeometry>
        </mxCell>
        <mxCell id="T8sFZcmI8J5siICjTdkP-35" value="" style="endArrow=none;html=1;rounded=0;entryX=0.5;entryY=0;entryDx=0;entryDy=0;" edge="1" parent="1" target="T8sFZcmI8J5siICjTdkP-20">
          <mxGeometry width="50" height="50" relative="1" as="geometry">
            <mxPoint x="110" y="430" as="sourcePoint" />
            <mxPoint x="80" y="460" as="targetPoint" />
          </mxGeometry>
        </mxCell>
        <mxCell id="T8sFZcmI8J5siICjTdkP-40" value="" style="endArrow=none;html=1;rounded=0;entryX=0.5;entryY=1;entryDx=0;entryDy=0;" edge="1" parent="1" target="T8sFZcmI8J5siICjTdkP-12">
          <mxGeometry width="50" height="50" relative="1" as="geometry">
            <mxPoint x="190" y="430" as="sourcePoint" />
            <mxPoint x="110" y="510" as="targetPoint" />
          </mxGeometry>
        </mxCell>
        <mxCell id="T8sFZcmI8J5siICjTdkP-43" value="" style="endArrow=none;html=1;rounded=0;exitX=0.5;exitY=0;exitDx=0;exitDy=0;entryX=0.5;entryY=1;entryDx=0;entryDy=0;" edge="1" parent="1" source="T8sFZcmI8J5siICjTdkP-24" target="T8sFZcmI8J5siICjTdkP-13">
          <mxGeometry width="50" height="50" relative="1" as="geometry">
            <mxPoint x="320" y="440" as="sourcePoint" />
            <mxPoint x="290" y="430" as="targetPoint" />
          </mxGeometry>
        </mxCell>
        <mxCell id="T8sFZcmI8J5siICjTdkP-48" value="" style="endArrow=none;html=1;rounded=0;" edge="1" parent="1" source="T8sFZcmI8J5siICjTdkP-28">
          <mxGeometry width="50" height="50" relative="1" as="geometry">
            <mxPoint x="350" y="490" as="sourcePoint" />
            <mxPoint x="430" y="430" as="targetPoint" />
          </mxGeometry>
        </mxCell>
        <mxCell id="T8sFZcmI8J5siICjTdkP-49" value="" style="endArrow=none;html=1;rounded=0;exitX=0.5;exitY=0;exitDx=0;exitDy=0;" edge="1" parent="1" source="T8sFZcmI8J5siICjTdkP-29">
          <mxGeometry width="50" height="50" relative="1" as="geometry">
            <mxPoint x="360" y="500" as="sourcePoint" />
            <mxPoint x="460" y="430" as="targetPoint" />
          </mxGeometry>
        </mxCell>
        <mxCell id="T8sFZcmI8J5siICjTdkP-50" value="" style="endArrow=none;html=1;rounded=0;exitX=0.5;exitY=0;exitDx=0;exitDy=0;" edge="1" parent="1" source="T8sFZcmI8J5siICjTdkP-30">
          <mxGeometry width="50" height="50" relative="1" as="geometry">
            <mxPoint x="370" y="510" as="sourcePoint" />
            <mxPoint x="490" y="430" as="targetPoint" />
          </mxGeometry>
        </mxCell>
        <mxCell id="T8sFZcmI8J5siICjTdkP-53" value="" style="endArrow=none;html=1;rounded=0;" edge="1" parent="1">
          <mxGeometry width="50" height="50" relative="1" as="geometry">
            <mxPoint x="110" y="430" as="sourcePoint" />
            <mxPoint x="140" y="430" as="targetPoint" />
          </mxGeometry>
        </mxCell>
        <mxCell id="T8sFZcmI8J5siICjTdkP-56" value="" style="endArrow=none;html=1;rounded=0;" edge="1" parent="1">
          <mxGeometry width="50" height="50" relative="1" as="geometry">
            <mxPoint x="430" y="430" as="sourcePoint" />
            <mxPoint x="490" y="430" as="targetPoint" />
          </mxGeometry>
        </mxCell>
        <mxCell id="T8sFZcmI8J5siICjTdkP-57" value="" style="endArrow=none;html=1;rounded=0;" edge="1" parent="1">
          <mxGeometry width="50" height="50" relative="1" as="geometry">
            <mxPoint x="250" y="180" as="sourcePoint" />
            <mxPoint x="1610" y="180" as="targetPoint" />
          </mxGeometry>
        </mxCell>
        <mxCell id="T8sFZcmI8J5siICjTdkP-58" value="" style="endArrow=none;html=1;rounded=0;exitX=0.5;exitY=0;exitDx=0;exitDy=0;" edge="1" parent="1" source="T8sFZcmI8J5siICjTdkP-2">
          <mxGeometry width="50" height="50" relative="1" as="geometry">
            <mxPoint x="390" y="340" as="sourcePoint" />
            <mxPoint x="250" y="180" as="targetPoint" />
          </mxGeometry>
        </mxCell>
        <mxCell id="T8sFZcmI8J5siICjTdkP-59" value="" style="endArrow=none;html=1;rounded=0;" edge="1" parent="1">
          <mxGeometry width="50" height="50" relative="1" as="geometry">
            <mxPoint x="1611" y="200" as="sourcePoint" />
            <mxPoint x="1611" y="180" as="targetPoint" />
          </mxGeometry>
        </mxCell>
        <mxCell id="T8sFZcmI8J5siICjTdkP-61" value="老师管理" style="rounded=0;whiteSpace=wrap;html=1;" vertex="1" parent="1">
          <mxGeometry x="870" y="200" width="20" height="80" as="geometry" />
        </mxCell>
        <mxCell id="T8sFZcmI8J5siICjTdkP-62" value="管理员管理" style="rounded=0;whiteSpace=wrap;html=1;" vertex="1" parent="1">
          <mxGeometry x="1601" y="200" width="20" height="80" as="geometry" />
        </mxCell>
        <mxCell id="T8sFZcmI8J5siICjTdkP-63" value="发起讨论" style="rounded=0;whiteSpace=wrap;html=1;" vertex="1" parent="1">
          <mxGeometry x="170" y="440" width="20" height="90" as="geometry" />
        </mxCell>
        <mxCell id="T8sFZcmI8J5siICjTdkP-65" value="作业" style="rounded=0;whiteSpace=wrap;html=1;" vertex="1" parent="1">
          <mxGeometry x="350" y="340" width="40" height="80" as="geometry" />
        </mxCell>
        <mxCell id="T8sFZcmI8J5siICjTdkP-66" value="" style="endArrow=none;html=1;rounded=0;exitX=0.5;exitY=0;exitDx=0;exitDy=0;" edge="1" parent="1" source="T8sFZcmI8J5siICjTdkP-65">
          <mxGeometry width="50" height="50" relative="1" as="geometry">
            <mxPoint x="444" y="350" as="sourcePoint" />
            <mxPoint x="370" y="300" as="targetPoint" />
          </mxGeometry>
        </mxCell>
        <mxCell id="T8sFZcmI8J5siICjTdkP-76" value="" style="endArrow=none;html=1;rounded=0;entryX=0.5;entryY=1;entryDx=0;entryDy=0;" edge="1" parent="1" target="T8sFZcmI8J5siICjTdkP-11">
          <mxGeometry width="50" height="50" relative="1" as="geometry">
            <mxPoint x="130" y="430" as="sourcePoint" />
            <mxPoint x="200" y="430" as="targetPoint" />
          </mxGeometry>
        </mxCell>
        <mxCell id="T8sFZcmI8J5siICjTdkP-77" value="" style="endArrow=none;html=1;rounded=0;exitX=0.5;exitY=0;exitDx=0;exitDy=0;" edge="1" parent="1" source="T8sFZcmI8J5siICjTdkP-18">
          <mxGeometry width="50" height="50" relative="1" as="geometry">
            <mxPoint x="210" y="450" as="sourcePoint" />
            <mxPoint x="140" y="430" as="targetPoint" />
            <Array as="points">
              <mxPoint x="140" y="430" />
            </Array>
          </mxGeometry>
        </mxCell>
        <mxCell id="T8sFZcmI8J5siICjTdkP-80" value="回答作业" style="rounded=0;whiteSpace=wrap;html=1;" vertex="1" parent="1">
          <mxGeometry x="360" y="440" width="20" height="90" as="geometry" />
        </mxCell>
        <mxCell id="T8sFZcmI8J5siICjTdkP-81" value="删除作业回答" style="rounded=0;whiteSpace=wrap;html=1;" vertex="1" parent="1">
          <mxGeometry x="390" y="440" width="20" height="90" as="geometry" />
        </mxCell>
        <mxCell id="T8sFZcmI8J5siICjTdkP-82" value="" style="endArrow=none;html=1;rounded=0;" edge="1" parent="1">
          <mxGeometry width="50" height="50" relative="1" as="geometry">
            <mxPoint x="180" y="430" as="sourcePoint" />
            <mxPoint x="210" y="430" as="targetPoint" />
          </mxGeometry>
        </mxCell>
        <mxCell id="T8sFZcmI8J5siICjTdkP-83" value="" style="endArrow=none;html=1;rounded=0;entryX=0.5;entryY=0;entryDx=0;entryDy=0;" edge="1" parent="1" target="T8sFZcmI8J5siICjTdkP-63">
          <mxGeometry width="50" height="50" relative="1" as="geometry">
            <mxPoint x="180" y="430" as="sourcePoint" />
            <mxPoint x="120" y="450" as="targetPoint" />
          </mxGeometry>
        </mxCell>
        <mxCell id="T8sFZcmI8J5siICjTdkP-84" value="" style="endArrow=none;html=1;rounded=0;exitX=0.5;exitY=0;exitDx=0;exitDy=0;" edge="1" parent="1" source="T8sFZcmI8J5siICjTdkP-23">
          <mxGeometry width="50" height="50" relative="1" as="geometry">
            <mxPoint x="130" y="450" as="sourcePoint" />
            <mxPoint x="210" y="430" as="targetPoint" />
          </mxGeometry>
        </mxCell>
        <mxCell id="T8sFZcmI8J5siICjTdkP-85" value="" style="endArrow=none;html=1;rounded=0;entryX=0.5;entryY=0;entryDx=0;entryDy=0;" edge="1" parent="1" target="T8sFZcmI8J5siICjTdkP-26">
          <mxGeometry width="50" height="50" relative="1" as="geometry">
            <mxPoint x="280" y="430" as="sourcePoint" />
            <mxPoint x="260" y="430" as="targetPoint" />
          </mxGeometry>
        </mxCell>
        <mxCell id="T8sFZcmI8J5siICjTdkP-86" value="" style="endArrow=none;html=1;rounded=0;entryX=0.5;entryY=1;entryDx=0;entryDy=0;" edge="1" parent="1" target="T8sFZcmI8J5siICjTdkP-15">
          <mxGeometry width="50" height="50" relative="1" as="geometry">
            <mxPoint x="430" y="430" as="sourcePoint" />
            <mxPoint x="270" y="440" as="targetPoint" />
          </mxGeometry>
        </mxCell>
        <mxCell id="T8sFZcmI8J5siICjTdkP-87" value="" style="endArrow=none;html=1;rounded=0;" edge="1" parent="1">
          <mxGeometry width="50" height="50" relative="1" as="geometry">
            <mxPoint x="340" y="430" as="sourcePoint" />
            <mxPoint x="400" y="430" as="targetPoint" />
          </mxGeometry>
        </mxCell>
        <mxCell id="T8sFZcmI8J5siICjTdkP-88" value="" style="endArrow=none;html=1;rounded=0;entryX=0.5;entryY=0;entryDx=0;entryDy=0;" edge="1" parent="1" target="T8sFZcmI8J5siICjTdkP-27">
          <mxGeometry width="50" height="50" relative="1" as="geometry">
            <mxPoint x="340" y="430" as="sourcePoint" />
            <mxPoint x="320" y="450" as="targetPoint" />
          </mxGeometry>
        </mxCell>
        <mxCell id="T8sFZcmI8J5siICjTdkP-89" value="" style="endArrow=none;html=1;rounded=0;exitX=0.5;exitY=0;exitDx=0;exitDy=0;entryX=0.5;entryY=1;entryDx=0;entryDy=0;exitPerimeter=0;" edge="1" parent="1" source="T8sFZcmI8J5siICjTdkP-80" target="T8sFZcmI8J5siICjTdkP-65">
          <mxGeometry width="50" height="50" relative="1" as="geometry">
            <mxPoint x="330" y="440" as="sourcePoint" />
            <mxPoint x="370" y="430" as="targetPoint" />
          </mxGeometry>
        </mxCell>
        <mxCell id="T8sFZcmI8J5siICjTdkP-90" value="" style="endArrow=none;html=1;rounded=0;entryX=0.5;entryY=0;entryDx=0;entryDy=0;" edge="1" parent="1" target="T8sFZcmI8J5siICjTdkP-81">
          <mxGeometry width="50" height="50" relative="1" as="geometry">
            <mxPoint x="400" y="430" as="sourcePoint" />
            <mxPoint x="340" y="470" as="targetPoint" />
          </mxGeometry>
        </mxCell>
        <mxCell id="T8sFZcmI8J5siICjTdkP-191" value="" style="endArrow=none;html=1;rounded=0;" edge="1" parent="1">
          <mxGeometry width="50" height="50" relative="1" as="geometry">
            <mxPoint x="530" y="300" as="sourcePoint" />
            <mxPoint x="1200" y="300" as="targetPoint" />
          </mxGeometry>
        </mxCell>
        <mxCell id="T8sFZcmI8J5siICjTdkP-192" value="" style="endArrow=none;html=1;rounded=0;entryX=0.5;entryY=1;entryDx=0;entryDy=0;" edge="1" parent="1">
          <mxGeometry width="50" height="50" relative="1" as="geometry">
            <mxPoint x="880" y="300" as="sourcePoint" />
            <mxPoint x="880" y="280" as="targetPoint" />
          </mxGeometry>
        </mxCell>
        <mxCell id="T8sFZcmI8J5siICjTdkP-193" value="" style="endArrow=none;html=1;rounded=0;exitX=0.5;exitY=0;exitDx=0;exitDy=0;" edge="1" parent="1" source="T8sFZcmI8J5siICjTdkP-194">
          <mxGeometry width="50" height="50" relative="1" as="geometry">
            <mxPoint x="538.89" y="340" as="sourcePoint" />
            <mxPoint x="530" y="300" as="targetPoint" />
            <Array as="points" />
          </mxGeometry>
        </mxCell>
        <mxCell id="T8sFZcmI8J5siICjTdkP-194" value="首页" style="rounded=0;whiteSpace=wrap;html=1;" vertex="1" parent="1">
          <mxGeometry x="510" y="340" width="40" height="80" as="geometry" />
        </mxCell>
        <mxCell id="T8sFZcmI8J5siICjTdkP-195" value="" style="endArrow=none;html=1;rounded=0;exitX=0.5;exitY=0;exitDx=0;exitDy=0;" edge="1" parent="1" source="T8sFZcmI8J5siICjTdkP-198">
          <mxGeometry width="50" height="50" relative="1" as="geometry">
            <mxPoint x="570" y="340" as="sourcePoint" />
            <mxPoint x="590" y="300" as="targetPoint" />
            <Array as="points" />
          </mxGeometry>
        </mxCell>
        <mxCell id="T8sFZcmI8J5siICjTdkP-196" value="" style="endArrow=none;html=1;rounded=0;exitX=0.5;exitY=0;exitDx=0;exitDy=0;" edge="1" parent="1" source="T8sFZcmI8J5siICjTdkP-200">
          <mxGeometry width="50" height="50" relative="1" as="geometry">
            <mxPoint x="940" y="340" as="sourcePoint" />
            <mxPoint x="880" y="300" as="targetPoint" />
            <Array as="points" />
          </mxGeometry>
        </mxCell>
        <mxCell id="T8sFZcmI8J5siICjTdkP-197" value="" style="endArrow=none;html=1;rounded=0;exitX=0.5;exitY=0;exitDx=0;exitDy=0;" edge="1" parent="1" source="T8sFZcmI8J5siICjTdkP-201">
          <mxGeometry width="50" height="50" relative="1" as="geometry">
            <mxPoint x="989.44" y="340" as="sourcePoint" />
            <mxPoint x="970" y="300" as="targetPoint" />
          </mxGeometry>
        </mxCell>
        <mxCell id="T8sFZcmI8J5siICjTdkP-198" value="课程及视频" style="rounded=0;whiteSpace=wrap;html=1;" vertex="1" parent="1">
          <mxGeometry x="570" y="340" width="40" height="80" as="geometry" />
        </mxCell>
        <mxCell id="T8sFZcmI8J5siICjTdkP-199" value="讨论" style="rounded=0;whiteSpace=wrap;html=1;" vertex="1" parent="1">
          <mxGeometry x="740" y="340" width="40" height="80" as="geometry" />
        </mxCell>
        <mxCell id="T8sFZcmI8J5siICjTdkP-200" value="公告" style="rounded=0;whiteSpace=wrap;html=1;" vertex="1" parent="1">
          <mxGeometry x="860" y="340" width="40" height="80" as="geometry" />
        </mxCell>
        <mxCell id="T8sFZcmI8J5siICjTdkP-201" value="试卷" style="rounded=0;whiteSpace=wrap;html=1;" vertex="1" parent="1">
          <mxGeometry x="950" y="340" width="40" height="80" as="geometry" />
        </mxCell>
        <mxCell id="T8sFZcmI8J5siICjTdkP-202" value="个人中心" style="rounded=0;whiteSpace=wrap;html=1;" vertex="1" parent="1">
          <mxGeometry x="1090" y="340" width="40" height="80" as="geometry" />
        </mxCell>
        <mxCell id="T8sFZcmI8J5siICjTdkP-203" value="" style="endArrow=none;html=1;rounded=0;" edge="1" parent="1" source="T8sFZcmI8J5siICjTdkP-202">
          <mxGeometry width="50" height="50" relative="1" as="geometry">
            <mxPoint x="896.5" y="300" as="sourcePoint" />
            <mxPoint x="1110.5" y="300" as="targetPoint" />
          </mxGeometry>
        </mxCell>
        <mxCell id="T8sFZcmI8J5siICjTdkP-204" value="" style="endArrow=none;html=1;rounded=0;exitX=0.5;exitY=0;exitDx=0;exitDy=0;" edge="1" parent="1" source="T8sFZcmI8J5siICjTdkP-199">
          <mxGeometry width="50" height="50" relative="1" as="geometry">
            <mxPoint x="790" y="300" as="sourcePoint" />
            <mxPoint x="760" y="300" as="targetPoint" />
          </mxGeometry>
        </mxCell>
        <mxCell id="T8sFZcmI8J5siICjTdkP-205" value="查看课程视频留言" style="rounded=0;whiteSpace=wrap;html=1;" vertex="1" parent="1">
          <mxGeometry x="590" y="440" width="20" height="120" as="geometry" />
        </mxCell>
        <mxCell id="T8sFZcmI8J5siICjTdkP-206" value="欢迎" style="rounded=0;whiteSpace=wrap;html=1;" vertex="1" parent="1">
          <mxGeometry x="520" y="440" width="20" height="90" as="geometry" />
        </mxCell>
        <mxCell id="T8sFZcmI8J5siICjTdkP-207" value="查看课程资源信息" style="rounded=0;whiteSpace=wrap;html=1;" vertex="1" parent="1">
          <mxGeometry x="560" y="440" width="20" height="120" as="geometry" />
        </mxCell>
        <mxCell id="T8sFZcmI8J5siICjTdkP-208" value="回复讨论" style="rounded=0;whiteSpace=wrap;html=1;" vertex="1" parent="1">
          <mxGeometry x="740" y="440" width="20" height="90" as="geometry" />
        </mxCell>
        <mxCell id="T8sFZcmI8J5siICjTdkP-209" value="发起公告" style="rounded=0;whiteSpace=wrap;html=1;" vertex="1" parent="1">
          <mxGeometry x="830" y="440" width="20" height="90" as="geometry" />
        </mxCell>
        <mxCell id="T8sFZcmI8J5siICjTdkP-210" value="修改试卷试卷" style="rounded=0;whiteSpace=wrap;html=1;" vertex="1" parent="1">
          <mxGeometry x="950" y="440" width="20" height="90" as="geometry" />
        </mxCell>
        <mxCell id="T8sFZcmI8J5siICjTdkP-211" value="查看作业详情" style="rounded=0;whiteSpace=wrap;html=1;" vertex="1" parent="1">
          <mxGeometry x="1010" y="440" width="20" height="90" as="geometry" />
        </mxCell>
        <mxCell id="T8sFZcmI8J5siICjTdkP-212" value="查看个人信息" style="rounded=0;whiteSpace=wrap;html=1;" vertex="1" parent="1">
          <mxGeometry x="1100" y="440" width="20" height="90" as="geometry" />
        </mxCell>
        <mxCell id="T8sFZcmI8J5siICjTdkP-213" value="修改个人信息" style="rounded=0;whiteSpace=wrap;html=1;" vertex="1" parent="1">
          <mxGeometry x="1130" y="440" width="20" height="90" as="geometry" />
        </mxCell>
        <mxCell id="T8sFZcmI8J5siICjTdkP-214" value="修改密码" style="rounded=0;whiteSpace=wrap;html=1;" vertex="1" parent="1">
          <mxGeometry x="1160" y="440" width="20" height="90" as="geometry" />
        </mxCell>
        <mxCell id="T8sFZcmI8J5siICjTdkP-215" value="" style="endArrow=none;html=1;rounded=0;exitX=0.5;exitY=0;exitDx=0;exitDy=0;" edge="1" parent="1" source="T8sFZcmI8J5siICjTdkP-206">
          <mxGeometry width="50" height="50" relative="1" as="geometry">
            <mxPoint x="530" y="430" as="sourcePoint" />
            <mxPoint x="530" y="420" as="targetPoint" />
          </mxGeometry>
        </mxCell>
        <mxCell id="T8sFZcmI8J5siICjTdkP-216" value="" style="endArrow=none;html=1;rounded=0;entryX=0.5;entryY=0;entryDx=0;entryDy=0;" edge="1" parent="1" target="T8sFZcmI8J5siICjTdkP-207">
          <mxGeometry width="50" height="50" relative="1" as="geometry">
            <mxPoint x="570" y="430" as="sourcePoint" />
            <mxPoint x="540" y="460" as="targetPoint" />
          </mxGeometry>
        </mxCell>
        <mxCell id="T8sFZcmI8J5siICjTdkP-217" value="" style="endArrow=none;html=1;rounded=0;entryX=0.5;entryY=1;entryDx=0;entryDy=0;" edge="1" parent="1" target="T8sFZcmI8J5siICjTdkP-199">
          <mxGeometry width="50" height="50" relative="1" as="geometry">
            <mxPoint x="760" y="430" as="sourcePoint" />
            <mxPoint x="680" y="510" as="targetPoint" />
          </mxGeometry>
        </mxCell>
        <mxCell id="T8sFZcmI8J5siICjTdkP-218" value="" style="endArrow=none;html=1;rounded=0;exitX=0.5;exitY=0;exitDx=0;exitDy=0;" edge="1" parent="1" source="T8sFZcmI8J5siICjTdkP-247">
          <mxGeometry width="50" height="50" relative="1" as="geometry">
            <mxPoint x="950" y="440" as="sourcePoint" />
            <mxPoint x="870" y="430" as="targetPoint" />
          </mxGeometry>
        </mxCell>
        <mxCell id="T8sFZcmI8J5siICjTdkP-219" value="" style="endArrow=none;html=1;rounded=0;" edge="1" parent="1" source="T8sFZcmI8J5siICjTdkP-212">
          <mxGeometry width="50" height="50" relative="1" as="geometry">
            <mxPoint x="1030" y="490" as="sourcePoint" />
            <mxPoint x="1110" y="430" as="targetPoint" />
          </mxGeometry>
        </mxCell>
        <mxCell id="T8sFZcmI8J5siICjTdkP-220" value="" style="endArrow=none;html=1;rounded=0;exitX=0.5;exitY=0;exitDx=0;exitDy=0;" edge="1" parent="1" source="T8sFZcmI8J5siICjTdkP-213">
          <mxGeometry width="50" height="50" relative="1" as="geometry">
            <mxPoint x="1040" y="500" as="sourcePoint" />
            <mxPoint x="1140" y="430" as="targetPoint" />
          </mxGeometry>
        </mxCell>
        <mxCell id="T8sFZcmI8J5siICjTdkP-221" value="" style="endArrow=none;html=1;rounded=0;exitX=0.5;exitY=0;exitDx=0;exitDy=0;" edge="1" parent="1" source="T8sFZcmI8J5siICjTdkP-214">
          <mxGeometry width="50" height="50" relative="1" as="geometry">
            <mxPoint x="1050" y="510" as="sourcePoint" />
            <mxPoint x="1170" y="430" as="targetPoint" />
          </mxGeometry>
        </mxCell>
        <mxCell id="T8sFZcmI8J5siICjTdkP-222" value="" style="endArrow=none;html=1;rounded=0;" edge="1" parent="1">
          <mxGeometry width="50" height="50" relative="1" as="geometry">
            <mxPoint x="570" y="430" as="sourcePoint" />
            <mxPoint x="690" y="430" as="targetPoint" />
          </mxGeometry>
        </mxCell>
        <mxCell id="T8sFZcmI8J5siICjTdkP-223" value="" style="endArrow=none;html=1;rounded=0;" edge="1" parent="1">
          <mxGeometry width="50" height="50" relative="1" as="geometry">
            <mxPoint x="1110" y="430" as="sourcePoint" />
            <mxPoint x="1170" y="430" as="targetPoint" />
          </mxGeometry>
        </mxCell>
        <mxCell id="T8sFZcmI8J5siICjTdkP-224" value="发起讨论" style="rounded=0;whiteSpace=wrap;html=1;" vertex="1" parent="1">
          <mxGeometry x="710" y="440" width="20" height="90" as="geometry" />
        </mxCell>
        <mxCell id="T8sFZcmI8J5siICjTdkP-225" value="作业" style="rounded=0;whiteSpace=wrap;html=1;" vertex="1" parent="1">
          <mxGeometry x="1030" y="340" width="40" height="80" as="geometry" />
        </mxCell>
        <mxCell id="T8sFZcmI8J5siICjTdkP-226" value="" style="endArrow=none;html=1;rounded=0;exitX=0.5;exitY=0;exitDx=0;exitDy=0;" edge="1" parent="1" source="T8sFZcmI8J5siICjTdkP-225">
          <mxGeometry width="50" height="50" relative="1" as="geometry">
            <mxPoint x="1124" y="350" as="sourcePoint" />
            <mxPoint x="1050" y="300" as="targetPoint" />
          </mxGeometry>
        </mxCell>
        <mxCell id="T8sFZcmI8J5siICjTdkP-227" value="" style="endArrow=none;html=1;rounded=0;entryX=0.5;entryY=1;entryDx=0;entryDy=0;" edge="1" parent="1" target="T8sFZcmI8J5siICjTdkP-198">
          <mxGeometry width="50" height="50" relative="1" as="geometry">
            <mxPoint x="590" y="430" as="sourcePoint" />
            <mxPoint x="660" y="430" as="targetPoint" />
          </mxGeometry>
        </mxCell>
        <mxCell id="T8sFZcmI8J5siICjTdkP-228" value="" style="endArrow=none;html=1;rounded=0;exitX=0.5;exitY=0;exitDx=0;exitDy=0;" edge="1" parent="1" source="T8sFZcmI8J5siICjTdkP-205">
          <mxGeometry width="50" height="50" relative="1" as="geometry">
            <mxPoint x="670" y="450" as="sourcePoint" />
            <mxPoint x="600" y="430" as="targetPoint" />
            <Array as="points">
              <mxPoint x="600" y="430" />
            </Array>
          </mxGeometry>
        </mxCell>
        <mxCell id="T8sFZcmI8J5siICjTdkP-229" value="回答作业" style="rounded=0;whiteSpace=wrap;html=1;" vertex="1" parent="1">
          <mxGeometry x="1040" y="440" width="20" height="90" as="geometry" />
        </mxCell>
        <mxCell id="T8sFZcmI8J5siICjTdkP-230" value="删除作业回答" style="rounded=0;whiteSpace=wrap;html=1;" vertex="1" parent="1">
          <mxGeometry x="1070" y="440" width="20" height="90" as="geometry" />
        </mxCell>
        <mxCell id="T8sFZcmI8J5siICjTdkP-231" value="" style="endArrow=none;html=1;rounded=0;" edge="1" parent="1">
          <mxGeometry width="50" height="50" relative="1" as="geometry">
            <mxPoint x="720" y="430" as="sourcePoint" />
            <mxPoint x="810" y="430" as="targetPoint" />
          </mxGeometry>
        </mxCell>
        <mxCell id="T8sFZcmI8J5siICjTdkP-232" value="" style="endArrow=none;html=1;rounded=0;entryX=0.5;entryY=0;entryDx=0;entryDy=0;" edge="1" parent="1" target="T8sFZcmI8J5siICjTdkP-224">
          <mxGeometry width="50" height="50" relative="1" as="geometry">
            <mxPoint x="720" y="430" as="sourcePoint" />
            <mxPoint x="660" y="450" as="targetPoint" />
          </mxGeometry>
        </mxCell>
        <mxCell id="T8sFZcmI8J5siICjTdkP-233" value="" style="endArrow=none;html=1;rounded=0;exitX=0.5;exitY=0;exitDx=0;exitDy=0;" edge="1" parent="1" source="T8sFZcmI8J5siICjTdkP-208">
          <mxGeometry width="50" height="50" relative="1" as="geometry">
            <mxPoint x="670" y="450" as="sourcePoint" />
            <mxPoint x="750" y="430" as="targetPoint" />
          </mxGeometry>
        </mxCell>
        <mxCell id="T8sFZcmI8J5siICjTdkP-234" value="" style="endArrow=none;html=1;rounded=0;exitX=0.5;exitY=1;exitDx=0;exitDy=0;" edge="1" parent="1" source="T8sFZcmI8J5siICjTdkP-201">
          <mxGeometry width="50" height="50" relative="1" as="geometry">
            <mxPoint x="940" y="450" as="sourcePoint" />
            <mxPoint x="970" y="430" as="targetPoint" />
          </mxGeometry>
        </mxCell>
        <mxCell id="T8sFZcmI8J5siICjTdkP-235" value="" style="endArrow=none;html=1;rounded=0;entryX=0.5;entryY=1;entryDx=0;entryDy=0;" edge="1" parent="1" target="T8sFZcmI8J5siICjTdkP-202">
          <mxGeometry width="50" height="50" relative="1" as="geometry">
            <mxPoint x="1110" y="430" as="sourcePoint" />
            <mxPoint x="950" y="440" as="targetPoint" />
          </mxGeometry>
        </mxCell>
        <mxCell id="T8sFZcmI8J5siICjTdkP-236" value="" style="endArrow=none;html=1;rounded=0;" edge="1" parent="1">
          <mxGeometry width="50" height="50" relative="1" as="geometry">
            <mxPoint x="1020" y="430" as="sourcePoint" />
            <mxPoint x="1080" y="430" as="targetPoint" />
          </mxGeometry>
        </mxCell>
        <mxCell id="T8sFZcmI8J5siICjTdkP-237" value="" style="endArrow=none;html=1;rounded=0;entryX=0.5;entryY=0;entryDx=0;entryDy=0;" edge="1" parent="1" target="T8sFZcmI8J5siICjTdkP-211">
          <mxGeometry width="50" height="50" relative="1" as="geometry">
            <mxPoint x="1020" y="430" as="sourcePoint" />
            <mxPoint x="1000" y="450" as="targetPoint" />
          </mxGeometry>
        </mxCell>
        <mxCell id="T8sFZcmI8J5siICjTdkP-238" value="" style="endArrow=none;html=1;rounded=0;exitX=0.5;exitY=0;exitDx=0;exitDy=0;entryX=0.5;entryY=1;entryDx=0;entryDy=0;exitPerimeter=0;" edge="1" parent="1" source="T8sFZcmI8J5siICjTdkP-229" target="T8sFZcmI8J5siICjTdkP-225">
          <mxGeometry width="50" height="50" relative="1" as="geometry">
            <mxPoint x="1010" y="440" as="sourcePoint" />
            <mxPoint x="1050" y="430" as="targetPoint" />
          </mxGeometry>
        </mxCell>
        <mxCell id="T8sFZcmI8J5siICjTdkP-239" value="" style="endArrow=none;html=1;rounded=0;entryX=0.5;entryY=0;entryDx=0;entryDy=0;" edge="1" parent="1" target="T8sFZcmI8J5siICjTdkP-230">
          <mxGeometry width="50" height="50" relative="1" as="geometry">
            <mxPoint x="1080" y="430" as="sourcePoint" />
            <mxPoint x="1020" y="470" as="targetPoint" />
          </mxGeometry>
        </mxCell>
        <mxCell id="T8sFZcmI8J5siICjTdkP-240" value="修改课程&lt;div&gt;或视频或留言&lt;/div&gt;" style="rounded=0;whiteSpace=wrap;html=1;" vertex="1" parent="1">
          <mxGeometry x="650" y="440" width="20" height="150" as="geometry" />
        </mxCell>
        <mxCell id="T8sFZcmI8J5siICjTdkP-241" value="删除课程或视频或留言" style="rounded=0;whiteSpace=wrap;html=1;" vertex="1" parent="1">
          <mxGeometry x="680" y="440" width="20" height="150" as="geometry" />
        </mxCell>
        <mxCell id="T8sFZcmI8J5siICjTdkP-242" value="新增课程或视频" style="rounded=0;whiteSpace=wrap;html=1;" vertex="1" parent="1">
          <mxGeometry x="620" y="440" width="20" height="120" as="geometry" />
        </mxCell>
        <mxCell id="T8sFZcmI8J5siICjTdkP-245" value="修改讨论" style="rounded=0;whiteSpace=wrap;html=1;" vertex="1" parent="1">
          <mxGeometry x="770" y="440" width="20" height="90" as="geometry" />
        </mxCell>
        <mxCell id="T8sFZcmI8J5siICjTdkP-246" value="删除公告" style="rounded=0;whiteSpace=wrap;html=1;" vertex="1" parent="1">
          <mxGeometry x="890" y="440" width="20" height="90" as="geometry" />
        </mxCell>
        <mxCell id="T8sFZcmI8J5siICjTdkP-247" value="修改公告" style="rounded=0;whiteSpace=wrap;html=1;" vertex="1" parent="1">
          <mxGeometry x="860" y="440" width="20" height="90" as="geometry" />
        </mxCell>
        <mxCell id="T8sFZcmI8J5siICjTdkP-248" value="增加试卷" style="rounded=0;whiteSpace=wrap;html=1;" vertex="1" parent="1">
          <mxGeometry x="920" y="440" width="20" height="90" as="geometry" />
        </mxCell>
        <mxCell id="T8sFZcmI8J5siICjTdkP-249" value="增加试题" style="rounded=0;whiteSpace=wrap;html=1;" vertex="1" parent="1">
          <mxGeometry x="980" y="440" width="20" height="90" as="geometry" />
        </mxCell>
        <mxCell id="T8sFZcmI8J5siICjTdkP-250" value="学生信息管理" style="rounded=0;whiteSpace=wrap;html=1;" vertex="1" parent="1">
          <mxGeometry x="1180" y="340" width="40" height="80" as="geometry" />
        </mxCell>
        <mxCell id="T8sFZcmI8J5siICjTdkP-252" value="" style="endArrow=none;html=1;rounded=0;" edge="1" parent="1">
          <mxGeometry width="50" height="50" relative="1" as="geometry">
            <mxPoint x="1199.66" y="340" as="sourcePoint" />
            <mxPoint x="1200.16" y="300" as="targetPoint" />
          </mxGeometry>
        </mxCell>
        <mxCell id="T8sFZcmI8J5siICjTdkP-253" value="" style="endArrow=none;html=1;rounded=0;" edge="1" parent="1">
          <mxGeometry width="50" height="50" relative="1" as="geometry">
            <mxPoint x="930" y="430" as="sourcePoint" />
            <mxPoint x="990" y="430" as="targetPoint" />
          </mxGeometry>
        </mxCell>
        <mxCell id="T8sFZcmI8J5siICjTdkP-254" value="" style="endArrow=none;html=1;rounded=0;" edge="1" parent="1">
          <mxGeometry width="50" height="50" relative="1" as="geometry">
            <mxPoint x="840" y="430" as="sourcePoint" />
            <mxPoint x="900" y="430" as="targetPoint" />
          </mxGeometry>
        </mxCell>
        <mxCell id="T8sFZcmI8J5siICjTdkP-259" value="" style="endArrow=none;html=1;rounded=0;entryX=0.5;entryY=0;entryDx=0;entryDy=0;" edge="1" parent="1" target="T8sFZcmI8J5siICjTdkP-249">
          <mxGeometry width="50" height="50" relative="1" as="geometry">
            <mxPoint x="990" y="430" as="sourcePoint" />
            <mxPoint x="980" y="440" as="targetPoint" />
          </mxGeometry>
        </mxCell>
        <mxCell id="T8sFZcmI8J5siICjTdkP-260" value="" style="endArrow=none;html=1;rounded=0;entryX=0.5;entryY=0;entryDx=0;entryDy=0;" edge="1" parent="1" target="T8sFZcmI8J5siICjTdkP-210">
          <mxGeometry width="50" height="50" relative="1" as="geometry">
            <mxPoint x="960" y="430" as="sourcePoint" />
            <mxPoint x="990" y="450" as="targetPoint" />
          </mxGeometry>
        </mxCell>
        <mxCell id="T8sFZcmI8J5siICjTdkP-261" value="" style="endArrow=none;html=1;rounded=0;exitX=0.5;exitY=0;exitDx=0;exitDy=0;" edge="1" parent="1" source="T8sFZcmI8J5siICjTdkP-209">
          <mxGeometry width="50" height="50" relative="1" as="geometry">
            <mxPoint x="970" y="440" as="sourcePoint" />
            <mxPoint x="840" y="430" as="targetPoint" />
          </mxGeometry>
        </mxCell>
        <mxCell id="T8sFZcmI8J5siICjTdkP-262" value="" style="endArrow=none;html=1;rounded=0;entryX=0.5;entryY=0;entryDx=0;entryDy=0;" edge="1" parent="1" target="T8sFZcmI8J5siICjTdkP-246">
          <mxGeometry width="50" height="50" relative="1" as="geometry">
            <mxPoint x="900" y="430" as="sourcePoint" />
            <mxPoint x="980" y="460" as="targetPoint" />
          </mxGeometry>
        </mxCell>
        <mxCell id="T8sFZcmI8J5siICjTdkP-263" value="" style="endArrow=none;html=1;rounded=0;exitX=0.5;exitY=1;exitDx=0;exitDy=0;" edge="1" parent="1" source="T8sFZcmI8J5siICjTdkP-200">
          <mxGeometry width="50" height="50" relative="1" as="geometry">
            <mxPoint x="990" y="460" as="sourcePoint" />
            <mxPoint x="880" y="430" as="targetPoint" />
          </mxGeometry>
        </mxCell>
        <mxCell id="T8sFZcmI8J5siICjTdkP-264" value="" style="endArrow=none;html=1;rounded=0;entryX=0.5;entryY=0;entryDx=0;entryDy=0;" edge="1" parent="1" target="T8sFZcmI8J5siICjTdkP-248">
          <mxGeometry width="50" height="50" relative="1" as="geometry">
            <mxPoint x="930" y="430" as="sourcePoint" />
            <mxPoint x="1000" y="480" as="targetPoint" />
          </mxGeometry>
        </mxCell>
        <mxCell id="T8sFZcmI8J5siICjTdkP-265" value="" style="endArrow=none;html=1;rounded=0;" edge="1" parent="1">
          <mxGeometry width="50" height="50" relative="1" as="geometry">
            <mxPoint x="630" y="430" as="sourcePoint" />
            <mxPoint x="630" y="440" as="targetPoint" />
            <Array as="points">
              <mxPoint x="630" y="440" />
            </Array>
          </mxGeometry>
        </mxCell>
        <mxCell id="T8sFZcmI8J5siICjTdkP-267" value="" style="endArrow=none;html=1;rounded=0;entryX=0.5;entryY=0;entryDx=0;entryDy=0;" edge="1" parent="1" target="T8sFZcmI8J5siICjTdkP-241">
          <mxGeometry width="50" height="50" relative="1" as="geometry">
            <mxPoint x="690" y="430" as="sourcePoint" />
            <mxPoint x="730" y="450" as="targetPoint" />
          </mxGeometry>
        </mxCell>
        <mxCell id="T8sFZcmI8J5siICjTdkP-268" value="" style="endArrow=none;html=1;rounded=0;entryX=0.5;entryY=0;entryDx=0;entryDy=0;" edge="1" parent="1" target="T8sFZcmI8J5siICjTdkP-240">
          <mxGeometry width="50" height="50" relative="1" as="geometry">
            <mxPoint x="660" y="430" as="sourcePoint" />
            <mxPoint x="740" y="460" as="targetPoint" />
          </mxGeometry>
        </mxCell>
        <mxCell id="T8sFZcmI8J5siICjTdkP-269" value="" style="endArrow=none;html=1;rounded=0;entryX=0.5;entryY=0;entryDx=0;entryDy=0;" edge="1" parent="1" target="T8sFZcmI8J5siICjTdkP-245">
          <mxGeometry width="50" height="50" relative="1" as="geometry">
            <mxPoint x="780" y="430" as="sourcePoint" />
            <mxPoint x="750" y="470" as="targetPoint" />
          </mxGeometry>
        </mxCell>
        <mxCell id="T8sFZcmI8J5siICjTdkP-270" value="" style="endArrow=none;html=1;rounded=0;entryX=0.5;entryY=0;entryDx=0;entryDy=0;" edge="1" parent="1" target="T8sFZcmI8J5siICjTdkP-21">
          <mxGeometry width="50" height="50" relative="1" as="geometry">
            <mxPoint x="810" y="430" as="sourcePoint" />
            <mxPoint x="760" y="480" as="targetPoint" />
          </mxGeometry>
        </mxCell>
        <mxCell id="T8sFZcmI8J5siICjTdkP-272" value="删除讨论" style="rounded=0;whiteSpace=wrap;html=1;" vertex="1" parent="1">
          <mxGeometry x="1531" y="440" width="20" height="90" as="geometry" />
        </mxCell>
        <mxCell id="T8sFZcmI8J5siICjTdkP-273" value="" style="endArrow=none;html=1;rounded=0;" edge="1" parent="1">
          <mxGeometry width="50" height="50" relative="1" as="geometry">
            <mxPoint x="1261" y="300" as="sourcePoint" />
            <mxPoint x="2090" y="300" as="targetPoint" />
          </mxGeometry>
        </mxCell>
        <mxCell id="T8sFZcmI8J5siICjTdkP-274" value="" style="endArrow=none;html=1;rounded=0;entryX=0.5;entryY=1;entryDx=0;entryDy=0;" edge="1" parent="1">
          <mxGeometry width="50" height="50" relative="1" as="geometry">
            <mxPoint x="1611" y="300" as="sourcePoint" />
            <mxPoint x="1611" y="280" as="targetPoint" />
          </mxGeometry>
        </mxCell>
        <mxCell id="T8sFZcmI8J5siICjTdkP-275" value="" style="endArrow=none;html=1;rounded=0;exitX=0.5;exitY=0;exitDx=0;exitDy=0;" edge="1" parent="1" source="T8sFZcmI8J5siICjTdkP-276">
          <mxGeometry width="50" height="50" relative="1" as="geometry">
            <mxPoint x="1269.8899999999999" y="340" as="sourcePoint" />
            <mxPoint x="1261" y="300" as="targetPoint" />
            <Array as="points" />
          </mxGeometry>
        </mxCell>
        <mxCell id="T8sFZcmI8J5siICjTdkP-276" value="首页" style="rounded=0;whiteSpace=wrap;html=1;" vertex="1" parent="1">
          <mxGeometry x="1241" y="340" width="40" height="80" as="geometry" />
        </mxCell>
        <mxCell id="T8sFZcmI8J5siICjTdkP-277" value="" style="endArrow=none;html=1;rounded=0;exitX=0.5;exitY=0;exitDx=0;exitDy=0;" edge="1" parent="1" source="T8sFZcmI8J5siICjTdkP-280">
          <mxGeometry width="50" height="50" relative="1" as="geometry">
            <mxPoint x="1301" y="340" as="sourcePoint" />
            <mxPoint x="1321" y="300" as="targetPoint" />
            <Array as="points" />
          </mxGeometry>
        </mxCell>
        <mxCell id="T8sFZcmI8J5siICjTdkP-278" value="" style="endArrow=none;html=1;rounded=0;exitX=0.5;exitY=0;exitDx=0;exitDy=0;" edge="1" parent="1" source="T8sFZcmI8J5siICjTdkP-282">
          <mxGeometry width="50" height="50" relative="1" as="geometry">
            <mxPoint x="1671" y="340" as="sourcePoint" />
            <mxPoint x="1611" y="300" as="targetPoint" />
            <Array as="points" />
          </mxGeometry>
        </mxCell>
        <mxCell id="T8sFZcmI8J5siICjTdkP-279" value="" style="endArrow=none;html=1;rounded=0;exitX=0.5;exitY=0;exitDx=0;exitDy=0;" edge="1" parent="1" source="T8sFZcmI8J5siICjTdkP-283">
          <mxGeometry width="50" height="50" relative="1" as="geometry">
            <mxPoint x="1720.44" y="340" as="sourcePoint" />
            <mxPoint x="1701" y="300" as="targetPoint" />
          </mxGeometry>
        </mxCell>
        <mxCell id="T8sFZcmI8J5siICjTdkP-280" value="课程及视频" style="rounded=0;whiteSpace=wrap;html=1;" vertex="1" parent="1">
          <mxGeometry x="1301" y="340" width="40" height="80" as="geometry" />
        </mxCell>
        <mxCell id="T8sFZcmI8J5siICjTdkP-281" value="讨论" style="rounded=0;whiteSpace=wrap;html=1;" vertex="1" parent="1">
          <mxGeometry x="1471" y="340" width="40" height="80" as="geometry" />
        </mxCell>
        <mxCell id="T8sFZcmI8J5siICjTdkP-282" value="公告" style="rounded=0;whiteSpace=wrap;html=1;" vertex="1" parent="1">
          <mxGeometry x="1591" y="340" width="40" height="80" as="geometry" />
        </mxCell>
        <mxCell id="T8sFZcmI8J5siICjTdkP-283" value="试卷" style="rounded=0;whiteSpace=wrap;html=1;" vertex="1" parent="1">
          <mxGeometry x="1681" y="340" width="40" height="80" as="geometry" />
        </mxCell>
        <mxCell id="T8sFZcmI8J5siICjTdkP-284" value="个人中心" style="rounded=0;whiteSpace=wrap;html=1;" vertex="1" parent="1">
          <mxGeometry x="1821" y="340" width="40" height="80" as="geometry" />
        </mxCell>
        <mxCell id="T8sFZcmI8J5siICjTdkP-285" value="" style="endArrow=none;html=1;rounded=0;" edge="1" parent="1" source="T8sFZcmI8J5siICjTdkP-284">
          <mxGeometry width="50" height="50" relative="1" as="geometry">
            <mxPoint x="1627.5" y="300" as="sourcePoint" />
            <mxPoint x="1841.5" y="300" as="targetPoint" />
          </mxGeometry>
        </mxCell>
        <mxCell id="T8sFZcmI8J5siICjTdkP-286" value="" style="endArrow=none;html=1;rounded=0;exitX=0.5;exitY=0;exitDx=0;exitDy=0;" edge="1" parent="1" source="T8sFZcmI8J5siICjTdkP-281">
          <mxGeometry width="50" height="50" relative="1" as="geometry">
            <mxPoint x="1521" y="300" as="sourcePoint" />
            <mxPoint x="1491" y="300" as="targetPoint" />
          </mxGeometry>
        </mxCell>
        <mxCell id="T8sFZcmI8J5siICjTdkP-287" value="查看课程视频留言" style="rounded=0;whiteSpace=wrap;html=1;" vertex="1" parent="1">
          <mxGeometry x="1321" y="440" width="20" height="120" as="geometry" />
        </mxCell>
        <mxCell id="T8sFZcmI8J5siICjTdkP-288" value="欢迎" style="rounded=0;whiteSpace=wrap;html=1;" vertex="1" parent="1">
          <mxGeometry x="1251" y="440" width="20" height="90" as="geometry" />
        </mxCell>
        <mxCell id="T8sFZcmI8J5siICjTdkP-289" value="查看课程资源信息" style="rounded=0;whiteSpace=wrap;html=1;" vertex="1" parent="1">
          <mxGeometry x="1291" y="440" width="20" height="120" as="geometry" />
        </mxCell>
        <mxCell id="T8sFZcmI8J5siICjTdkP-290" value="回复讨论" style="rounded=0;whiteSpace=wrap;html=1;" vertex="1" parent="1">
          <mxGeometry x="1471" y="440" width="20" height="90" as="geometry" />
        </mxCell>
        <mxCell id="T8sFZcmI8J5siICjTdkP-291" value="发起公告" style="rounded=0;whiteSpace=wrap;html=1;" vertex="1" parent="1">
          <mxGeometry x="1561" y="440" width="20" height="90" as="geometry" />
        </mxCell>
        <mxCell id="T8sFZcmI8J5siICjTdkP-292" value="修改试卷试卷" style="rounded=0;whiteSpace=wrap;html=1;" vertex="1" parent="1">
          <mxGeometry x="1681" y="440" width="20" height="90" as="geometry" />
        </mxCell>
        <mxCell id="T8sFZcmI8J5siICjTdkP-293" value="查看作业详情" style="rounded=0;whiteSpace=wrap;html=1;" vertex="1" parent="1">
          <mxGeometry x="1741" y="440" width="20" height="90" as="geometry" />
        </mxCell>
        <mxCell id="T8sFZcmI8J5siICjTdkP-294" value="查看个人信息" style="rounded=0;whiteSpace=wrap;html=1;" vertex="1" parent="1">
          <mxGeometry x="1831" y="440" width="20" height="90" as="geometry" />
        </mxCell>
        <mxCell id="T8sFZcmI8J5siICjTdkP-295" value="修改个人信息" style="rounded=0;whiteSpace=wrap;html=1;" vertex="1" parent="1">
          <mxGeometry x="1861" y="440" width="20" height="90" as="geometry" />
        </mxCell>
        <mxCell id="T8sFZcmI8J5siICjTdkP-296" value="修改密码" style="rounded=0;whiteSpace=wrap;html=1;" vertex="1" parent="1">
          <mxGeometry x="1891" y="440" width="20" height="90" as="geometry" />
        </mxCell>
        <mxCell id="T8sFZcmI8J5siICjTdkP-297" value="" style="endArrow=none;html=1;rounded=0;exitX=0.5;exitY=0;exitDx=0;exitDy=0;" edge="1" parent="1" source="T8sFZcmI8J5siICjTdkP-288">
          <mxGeometry width="50" height="50" relative="1" as="geometry">
            <mxPoint x="1261" y="430" as="sourcePoint" />
            <mxPoint x="1261" y="420" as="targetPoint" />
          </mxGeometry>
        </mxCell>
        <mxCell id="T8sFZcmI8J5siICjTdkP-298" value="" style="endArrow=none;html=1;rounded=0;entryX=0.5;entryY=0;entryDx=0;entryDy=0;" edge="1" parent="1" target="T8sFZcmI8J5siICjTdkP-289">
          <mxGeometry width="50" height="50" relative="1" as="geometry">
            <mxPoint x="1301" y="430" as="sourcePoint" />
            <mxPoint x="1271" y="460" as="targetPoint" />
          </mxGeometry>
        </mxCell>
        <mxCell id="T8sFZcmI8J5siICjTdkP-299" value="" style="endArrow=none;html=1;rounded=0;entryX=0.5;entryY=1;entryDx=0;entryDy=0;" edge="1" parent="1" target="T8sFZcmI8J5siICjTdkP-281">
          <mxGeometry width="50" height="50" relative="1" as="geometry">
            <mxPoint x="1491" y="430" as="sourcePoint" />
            <mxPoint x="1411" y="510" as="targetPoint" />
          </mxGeometry>
        </mxCell>
        <mxCell id="T8sFZcmI8J5siICjTdkP-300" value="" style="endArrow=none;html=1;rounded=0;exitX=0.5;exitY=0;exitDx=0;exitDy=0;" edge="1" parent="1" source="T8sFZcmI8J5siICjTdkP-325">
          <mxGeometry width="50" height="50" relative="1" as="geometry">
            <mxPoint x="1681" y="440" as="sourcePoint" />
            <mxPoint x="1601" y="430" as="targetPoint" />
          </mxGeometry>
        </mxCell>
        <mxCell id="T8sFZcmI8J5siICjTdkP-301" value="" style="endArrow=none;html=1;rounded=0;" edge="1" parent="1" source="T8sFZcmI8J5siICjTdkP-294">
          <mxGeometry width="50" height="50" relative="1" as="geometry">
            <mxPoint x="1761" y="490" as="sourcePoint" />
            <mxPoint x="1841" y="430" as="targetPoint" />
          </mxGeometry>
        </mxCell>
        <mxCell id="T8sFZcmI8J5siICjTdkP-302" value="" style="endArrow=none;html=1;rounded=0;exitX=0.5;exitY=0;exitDx=0;exitDy=0;" edge="1" parent="1" source="T8sFZcmI8J5siICjTdkP-295">
          <mxGeometry width="50" height="50" relative="1" as="geometry">
            <mxPoint x="1771" y="500" as="sourcePoint" />
            <mxPoint x="1871" y="430" as="targetPoint" />
          </mxGeometry>
        </mxCell>
        <mxCell id="T8sFZcmI8J5siICjTdkP-303" value="" style="endArrow=none;html=1;rounded=0;exitX=0.5;exitY=0;exitDx=0;exitDy=0;" edge="1" parent="1" source="T8sFZcmI8J5siICjTdkP-296">
          <mxGeometry width="50" height="50" relative="1" as="geometry">
            <mxPoint x="1781" y="510" as="sourcePoint" />
            <mxPoint x="1901" y="430" as="targetPoint" />
          </mxGeometry>
        </mxCell>
        <mxCell id="T8sFZcmI8J5siICjTdkP-304" value="" style="endArrow=none;html=1;rounded=0;" edge="1" parent="1">
          <mxGeometry width="50" height="50" relative="1" as="geometry">
            <mxPoint x="1301" y="430" as="sourcePoint" />
            <mxPoint x="1421" y="430" as="targetPoint" />
          </mxGeometry>
        </mxCell>
        <mxCell id="T8sFZcmI8J5siICjTdkP-305" value="" style="endArrow=none;html=1;rounded=0;" edge="1" parent="1">
          <mxGeometry width="50" height="50" relative="1" as="geometry">
            <mxPoint x="1841" y="430" as="sourcePoint" />
            <mxPoint x="1901" y="430" as="targetPoint" />
          </mxGeometry>
        </mxCell>
        <mxCell id="T8sFZcmI8J5siICjTdkP-306" value="发起讨论" style="rounded=0;whiteSpace=wrap;html=1;" vertex="1" parent="1">
          <mxGeometry x="1441" y="440" width="20" height="90" as="geometry" />
        </mxCell>
        <mxCell id="T8sFZcmI8J5siICjTdkP-307" value="作业" style="rounded=0;whiteSpace=wrap;html=1;" vertex="1" parent="1">
          <mxGeometry x="1761" y="340" width="40" height="80" as="geometry" />
        </mxCell>
        <mxCell id="T8sFZcmI8J5siICjTdkP-308" value="" style="endArrow=none;html=1;rounded=0;exitX=0.5;exitY=0;exitDx=0;exitDy=0;" edge="1" parent="1" source="T8sFZcmI8J5siICjTdkP-307">
          <mxGeometry width="50" height="50" relative="1" as="geometry">
            <mxPoint x="1855" y="350" as="sourcePoint" />
            <mxPoint x="1781" y="300" as="targetPoint" />
          </mxGeometry>
        </mxCell>
        <mxCell id="T8sFZcmI8J5siICjTdkP-309" value="" style="endArrow=none;html=1;rounded=0;entryX=0.5;entryY=1;entryDx=0;entryDy=0;" edge="1" parent="1" target="T8sFZcmI8J5siICjTdkP-280">
          <mxGeometry width="50" height="50" relative="1" as="geometry">
            <mxPoint x="1321" y="430" as="sourcePoint" />
            <mxPoint x="1391" y="430" as="targetPoint" />
          </mxGeometry>
        </mxCell>
        <mxCell id="T8sFZcmI8J5siICjTdkP-310" value="" style="endArrow=none;html=1;rounded=0;exitX=0.5;exitY=0;exitDx=0;exitDy=0;" edge="1" parent="1" source="T8sFZcmI8J5siICjTdkP-287">
          <mxGeometry width="50" height="50" relative="1" as="geometry">
            <mxPoint x="1401" y="450" as="sourcePoint" />
            <mxPoint x="1331" y="430" as="targetPoint" />
            <Array as="points">
              <mxPoint x="1331" y="430" />
            </Array>
          </mxGeometry>
        </mxCell>
        <mxCell id="T8sFZcmI8J5siICjTdkP-311" value="回答作业" style="rounded=0;whiteSpace=wrap;html=1;" vertex="1" parent="1">
          <mxGeometry x="1771" y="440" width="20" height="90" as="geometry" />
        </mxCell>
        <mxCell id="T8sFZcmI8J5siICjTdkP-312" value="删除作业回答" style="rounded=0;whiteSpace=wrap;html=1;" vertex="1" parent="1">
          <mxGeometry x="1801" y="440" width="20" height="90" as="geometry" />
        </mxCell>
        <mxCell id="T8sFZcmI8J5siICjTdkP-313" value="" style="endArrow=none;html=1;rounded=0;" edge="1" parent="1">
          <mxGeometry width="50" height="50" relative="1" as="geometry">
            <mxPoint x="1451" y="430" as="sourcePoint" />
            <mxPoint x="1541" y="430" as="targetPoint" />
          </mxGeometry>
        </mxCell>
        <mxCell id="T8sFZcmI8J5siICjTdkP-314" value="" style="endArrow=none;html=1;rounded=0;entryX=0.5;entryY=0;entryDx=0;entryDy=0;" edge="1" parent="1" target="T8sFZcmI8J5siICjTdkP-306">
          <mxGeometry width="50" height="50" relative="1" as="geometry">
            <mxPoint x="1451" y="430" as="sourcePoint" />
            <mxPoint x="1391" y="450" as="targetPoint" />
          </mxGeometry>
        </mxCell>
        <mxCell id="T8sFZcmI8J5siICjTdkP-315" value="" style="endArrow=none;html=1;rounded=0;exitX=0.5;exitY=0;exitDx=0;exitDy=0;" edge="1" parent="1" source="T8sFZcmI8J5siICjTdkP-290">
          <mxGeometry width="50" height="50" relative="1" as="geometry">
            <mxPoint x="1401" y="450" as="sourcePoint" />
            <mxPoint x="1481" y="430" as="targetPoint" />
          </mxGeometry>
        </mxCell>
        <mxCell id="T8sFZcmI8J5siICjTdkP-316" value="" style="endArrow=none;html=1;rounded=0;exitX=0.5;exitY=1;exitDx=0;exitDy=0;" edge="1" parent="1" source="T8sFZcmI8J5siICjTdkP-283">
          <mxGeometry width="50" height="50" relative="1" as="geometry">
            <mxPoint x="1671" y="450" as="sourcePoint" />
            <mxPoint x="1701" y="430" as="targetPoint" />
          </mxGeometry>
        </mxCell>
        <mxCell id="T8sFZcmI8J5siICjTdkP-317" value="" style="endArrow=none;html=1;rounded=0;entryX=0.5;entryY=1;entryDx=0;entryDy=0;" edge="1" parent="1" target="T8sFZcmI8J5siICjTdkP-284">
          <mxGeometry width="50" height="50" relative="1" as="geometry">
            <mxPoint x="1841" y="430" as="sourcePoint" />
            <mxPoint x="1681" y="440" as="targetPoint" />
          </mxGeometry>
        </mxCell>
        <mxCell id="T8sFZcmI8J5siICjTdkP-318" value="" style="endArrow=none;html=1;rounded=0;" edge="1" parent="1">
          <mxGeometry width="50" height="50" relative="1" as="geometry">
            <mxPoint x="1751" y="430" as="sourcePoint" />
            <mxPoint x="1811" y="430" as="targetPoint" />
          </mxGeometry>
        </mxCell>
        <mxCell id="T8sFZcmI8J5siICjTdkP-319" value="" style="endArrow=none;html=1;rounded=0;entryX=0.5;entryY=0;entryDx=0;entryDy=0;" edge="1" parent="1" target="T8sFZcmI8J5siICjTdkP-293">
          <mxGeometry width="50" height="50" relative="1" as="geometry">
            <mxPoint x="1751" y="430" as="sourcePoint" />
            <mxPoint x="1731" y="450" as="targetPoint" />
          </mxGeometry>
        </mxCell>
        <mxCell id="T8sFZcmI8J5siICjTdkP-320" value="" style="endArrow=none;html=1;rounded=0;exitX=0.5;exitY=0;exitDx=0;exitDy=0;entryX=0.5;entryY=1;entryDx=0;entryDy=0;exitPerimeter=0;" edge="1" parent="1" source="T8sFZcmI8J5siICjTdkP-311" target="T8sFZcmI8J5siICjTdkP-307">
          <mxGeometry width="50" height="50" relative="1" as="geometry">
            <mxPoint x="1741" y="440" as="sourcePoint" />
            <mxPoint x="1781" y="430" as="targetPoint" />
          </mxGeometry>
        </mxCell>
        <mxCell id="T8sFZcmI8J5siICjTdkP-321" value="" style="endArrow=none;html=1;rounded=0;entryX=0.5;entryY=0;entryDx=0;entryDy=0;" edge="1" parent="1" target="T8sFZcmI8J5siICjTdkP-312">
          <mxGeometry width="50" height="50" relative="1" as="geometry">
            <mxPoint x="1811" y="430" as="sourcePoint" />
            <mxPoint x="1751" y="470" as="targetPoint" />
          </mxGeometry>
        </mxCell>
        <mxCell id="T8sFZcmI8J5siICjTdkP-322" value="新增课程或视频" style="rounded=0;whiteSpace=wrap;html=1;" vertex="1" parent="1">
          <mxGeometry x="1351" y="440" width="20" height="120" as="geometry" />
        </mxCell>
        <mxCell id="T8sFZcmI8J5siICjTdkP-323" value="修改讨论" style="rounded=0;whiteSpace=wrap;html=1;" vertex="1" parent="1">
          <mxGeometry x="1501" y="440" width="20" height="90" as="geometry" />
        </mxCell>
        <mxCell id="T8sFZcmI8J5siICjTdkP-324" value="删除公告" style="rounded=0;whiteSpace=wrap;html=1;" vertex="1" parent="1">
          <mxGeometry x="1621" y="440" width="20" height="90" as="geometry" />
        </mxCell>
        <mxCell id="T8sFZcmI8J5siICjTdkP-325" value="修改公告" style="rounded=0;whiteSpace=wrap;html=1;" vertex="1" parent="1">
          <mxGeometry x="1591" y="440" width="20" height="90" as="geometry" />
        </mxCell>
        <mxCell id="T8sFZcmI8J5siICjTdkP-326" value="增加试卷" style="rounded=0;whiteSpace=wrap;html=1;" vertex="1" parent="1">
          <mxGeometry x="1651" y="440" width="20" height="90" as="geometry" />
        </mxCell>
        <mxCell id="T8sFZcmI8J5siICjTdkP-327" value="增加试题" style="rounded=0;whiteSpace=wrap;html=1;" vertex="1" parent="1">
          <mxGeometry x="1711" y="440" width="20" height="90" as="geometry" />
        </mxCell>
        <mxCell id="T8sFZcmI8J5siICjTdkP-328" value="学生信息管理" style="rounded=0;whiteSpace=wrap;html=1;" vertex="1" parent="1">
          <mxGeometry x="1920" y="340" width="40" height="80" as="geometry" />
        </mxCell>
        <mxCell id="T8sFZcmI8J5siICjTdkP-329" value="" style="endArrow=none;html=1;rounded=0;" edge="1" parent="1">
          <mxGeometry width="50" height="50" relative="1" as="geometry">
            <mxPoint x="1930.66" y="340" as="sourcePoint" />
            <mxPoint x="1931.16" y="300" as="targetPoint" />
          </mxGeometry>
        </mxCell>
        <mxCell id="T8sFZcmI8J5siICjTdkP-330" value="" style="endArrow=none;html=1;rounded=0;" edge="1" parent="1">
          <mxGeometry width="50" height="50" relative="1" as="geometry">
            <mxPoint x="1661" y="430" as="sourcePoint" />
            <mxPoint x="1721" y="430" as="targetPoint" />
          </mxGeometry>
        </mxCell>
        <mxCell id="T8sFZcmI8J5siICjTdkP-331" value="" style="endArrow=none;html=1;rounded=0;" edge="1" parent="1">
          <mxGeometry width="50" height="50" relative="1" as="geometry">
            <mxPoint x="1571" y="430" as="sourcePoint" />
            <mxPoint x="1631" y="430" as="targetPoint" />
          </mxGeometry>
        </mxCell>
        <mxCell id="T8sFZcmI8J5siICjTdkP-332" value="" style="endArrow=none;html=1;rounded=0;entryX=0.5;entryY=0;entryDx=0;entryDy=0;" edge="1" parent="1" target="T8sFZcmI8J5siICjTdkP-327">
          <mxGeometry width="50" height="50" relative="1" as="geometry">
            <mxPoint x="1721" y="430" as="sourcePoint" />
            <mxPoint x="1711" y="440" as="targetPoint" />
          </mxGeometry>
        </mxCell>
        <mxCell id="T8sFZcmI8J5siICjTdkP-333" value="" style="endArrow=none;html=1;rounded=0;entryX=0.5;entryY=0;entryDx=0;entryDy=0;" edge="1" parent="1" target="T8sFZcmI8J5siICjTdkP-292">
          <mxGeometry width="50" height="50" relative="1" as="geometry">
            <mxPoint x="1691" y="430" as="sourcePoint" />
            <mxPoint x="1721" y="450" as="targetPoint" />
          </mxGeometry>
        </mxCell>
        <mxCell id="T8sFZcmI8J5siICjTdkP-334" value="" style="endArrow=none;html=1;rounded=0;exitX=0.5;exitY=0;exitDx=0;exitDy=0;" edge="1" parent="1" source="T8sFZcmI8J5siICjTdkP-291">
          <mxGeometry width="50" height="50" relative="1" as="geometry">
            <mxPoint x="1701" y="440" as="sourcePoint" />
            <mxPoint x="1571" y="430" as="targetPoint" />
          </mxGeometry>
        </mxCell>
        <mxCell id="T8sFZcmI8J5siICjTdkP-335" value="" style="endArrow=none;html=1;rounded=0;entryX=0.5;entryY=0;entryDx=0;entryDy=0;" edge="1" parent="1" target="T8sFZcmI8J5siICjTdkP-324">
          <mxGeometry width="50" height="50" relative="1" as="geometry">
            <mxPoint x="1631" y="430" as="sourcePoint" />
            <mxPoint x="1711" y="460" as="targetPoint" />
          </mxGeometry>
        </mxCell>
        <mxCell id="T8sFZcmI8J5siICjTdkP-336" value="" style="endArrow=none;html=1;rounded=0;exitX=0.5;exitY=1;exitDx=0;exitDy=0;" edge="1" parent="1" source="T8sFZcmI8J5siICjTdkP-282">
          <mxGeometry width="50" height="50" relative="1" as="geometry">
            <mxPoint x="1721" y="460" as="sourcePoint" />
            <mxPoint x="1611" y="430" as="targetPoint" />
          </mxGeometry>
        </mxCell>
        <mxCell id="T8sFZcmI8J5siICjTdkP-337" value="" style="endArrow=none;html=1;rounded=0;entryX=0.5;entryY=0;entryDx=0;entryDy=0;" edge="1" parent="1" target="T8sFZcmI8J5siICjTdkP-326">
          <mxGeometry width="50" height="50" relative="1" as="geometry">
            <mxPoint x="1661" y="430" as="sourcePoint" />
            <mxPoint x="1731" y="480" as="targetPoint" />
          </mxGeometry>
        </mxCell>
        <mxCell id="T8sFZcmI8J5siICjTdkP-338" value="" style="endArrow=none;html=1;rounded=0;" edge="1" parent="1">
          <mxGeometry width="50" height="50" relative="1" as="geometry">
            <mxPoint x="1361" y="430" as="sourcePoint" />
            <mxPoint x="1361" y="440" as="targetPoint" />
            <Array as="points">
              <mxPoint x="1361" y="440" />
            </Array>
          </mxGeometry>
        </mxCell>
        <mxCell id="T8sFZcmI8J5siICjTdkP-339" value="" style="endArrow=none;html=1;rounded=0;entryX=0.5;entryY=0;entryDx=0;entryDy=0;" edge="1" parent="1">
          <mxGeometry width="50" height="50" relative="1" as="geometry">
            <mxPoint x="1421" y="430" as="sourcePoint" />
            <mxPoint x="1421" y="440" as="targetPoint" />
          </mxGeometry>
        </mxCell>
        <mxCell id="T8sFZcmI8J5siICjTdkP-340" value="" style="endArrow=none;html=1;rounded=0;entryX=0.5;entryY=0;entryDx=0;entryDy=0;" edge="1" parent="1">
          <mxGeometry width="50" height="50" relative="1" as="geometry">
            <mxPoint x="1391" y="430" as="sourcePoint" />
            <mxPoint x="1391" y="440" as="targetPoint" />
          </mxGeometry>
        </mxCell>
        <mxCell id="T8sFZcmI8J5siICjTdkP-341" value="" style="endArrow=none;html=1;rounded=0;entryX=0.5;entryY=0;entryDx=0;entryDy=0;" edge="1" parent="1" target="T8sFZcmI8J5siICjTdkP-323">
          <mxGeometry width="50" height="50" relative="1" as="geometry">
            <mxPoint x="1511" y="430" as="sourcePoint" />
            <mxPoint x="1481" y="470" as="targetPoint" />
          </mxGeometry>
        </mxCell>
        <mxCell id="T8sFZcmI8J5siICjTdkP-342" value="" style="endArrow=none;html=1;rounded=0;entryX=0.5;entryY=0;entryDx=0;entryDy=0;" edge="1" parent="1" target="T8sFZcmI8J5siICjTdkP-272">
          <mxGeometry width="50" height="50" relative="1" as="geometry">
            <mxPoint x="1541" y="430" as="sourcePoint" />
            <mxPoint x="1491" y="480" as="targetPoint" />
          </mxGeometry>
        </mxCell>
        <mxCell id="T8sFZcmI8J5siICjTdkP-344" value="" style="endArrow=none;html=1;rounded=0;exitX=0.5;exitY=0;exitDx=0;exitDy=0;" edge="1" parent="1" source="T8sFZcmI8J5siICjTdkP-347">
          <mxGeometry width="50" height="50" relative="1" as="geometry">
            <mxPoint x="2000" y="340" as="sourcePoint" />
            <mxPoint x="1990" y="300" as="targetPoint" />
          </mxGeometry>
        </mxCell>
        <mxCell id="T8sFZcmI8J5siICjTdkP-345" value="" style="endArrow=none;html=1;rounded=0;" edge="1" parent="1">
          <mxGeometry width="50" height="50" relative="1" as="geometry">
            <mxPoint x="2040" y="340" as="sourcePoint" />
            <mxPoint x="2040" y="300" as="targetPoint" />
          </mxGeometry>
        </mxCell>
        <mxCell id="T8sFZcmI8J5siICjTdkP-346" value="" style="endArrow=none;html=1;rounded=0;exitX=0.5;exitY=0;exitDx=0;exitDy=0;" edge="1" parent="1" source="T8sFZcmI8J5siICjTdkP-351">
          <mxGeometry width="50" height="50" relative="1" as="geometry">
            <mxPoint x="2080" y="340" as="sourcePoint" />
            <mxPoint x="2090" y="300" as="targetPoint" />
          </mxGeometry>
        </mxCell>
        <mxCell id="T8sFZcmI8J5siICjTdkP-347" value="老师信息管理" style="rounded=0;whiteSpace=wrap;html=1;" vertex="1" parent="1">
          <mxGeometry x="1970" y="340" width="40" height="80" as="geometry" />
        </mxCell>
        <mxCell id="T8sFZcmI8J5siICjTdkP-348" value="修改课程&lt;div&gt;或视频或留言&lt;/div&gt;" style="rounded=0;whiteSpace=wrap;html=1;" vertex="1" parent="1">
          <mxGeometry x="1380" y="440" width="20" height="150" as="geometry" />
        </mxCell>
        <mxCell id="T8sFZcmI8J5siICjTdkP-349" value="删除课程或视频或留言" style="rounded=0;whiteSpace=wrap;html=1;" vertex="1" parent="1">
          <mxGeometry x="1410" y="440" width="20" height="150" as="geometry" />
        </mxCell>
        <mxCell id="T8sFZcmI8J5siICjTdkP-350" value="基础数据信息管理" style="rounded=0;whiteSpace=wrap;html=1;" vertex="1" parent="1">
          <mxGeometry x="2020" y="340" width="40" height="80" as="geometry" />
        </mxCell>
        <mxCell id="T8sFZcmI8J5siICjTdkP-351" value="轮播图管理" style="rounded=0;whiteSpace=wrap;html=1;" vertex="1" parent="1">
          <mxGeometry x="2070" y="340" width="40" height="80" as="geometry" />
        </mxCell>
        <mxCell id="T8sFZcmI8J5siICjTdkP-352" value="查看考试记录及错题" style="rounded=0;whiteSpace=wrap;html=1;" vertex="1" parent="1">
          <mxGeometry x="300" y="440" width="20" height="140" as="geometry" />
        </mxCell>
        <mxCell id="T8sFZcmI8J5siICjTdkP-353" value="" style="endArrow=none;html=1;rounded=0;" edge="1" parent="1">
          <mxGeometry width="50" height="50" relative="1" as="geometry">
            <mxPoint x="280" y="430" as="sourcePoint" />
            <mxPoint x="310" y="430" as="targetPoint" />
          </mxGeometry>
        </mxCell>
        <mxCell id="T8sFZcmI8J5siICjTdkP-354" value="" style="endArrow=none;html=1;rounded=0;entryX=0.5;entryY=1;entryDx=0;entryDy=0;exitX=0.5;exitY=0;exitDx=0;exitDy=0;" edge="1" parent="1" source="T8sFZcmI8J5siICjTdkP-352" target="T8sFZcmI8J5siICjTdkP-14">
          <mxGeometry width="50" height="50" relative="1" as="geometry">
            <mxPoint x="350" y="440" as="sourcePoint" />
            <mxPoint x="350" y="450" as="targetPoint" />
          </mxGeometry>
        </mxCell>
      </root>
    </mxGraphModel>
  </diagram>
</mxfile>
